<svg version="1.1" id="Layer_1" xmlns="http://www.w3.org/2000/svg" xmlns:xlink="http://www.w3.org/1999/xlink" x="0px" y="0px"
	 width="100%" viewBox="0 0 1328 407" enable-background="new 0 0 1328 407" xml:space="preserve">
<path fill="#FEFEFE" opacity="1.000000" stroke="none" 
	d="
M866.000000,408.000000 
	C577.333374,408.000000 289.166687,408.000000 1.000039,408.000000 
	C1.000026,272.333344 1.000026,136.666718 1.000013,1.000057 
	C443.666626,1.000038 886.333252,1.000038 1329.000000,1.000019 
	C1329.000000,136.666611 1329.000000,272.333221 1329.000000,407.999908 
	C1174.833374,408.000000 1020.666687,408.000000 866.000000,408.000000 
M1222.064697,161.801712 
	C1221.729492,161.478958 1221.394165,161.156204 1220.755615,160.290588 
	C1219.836304,159.889145 1218.917114,159.487686 1217.429321,158.662964 
	C1216.155029,158.020966 1214.880615,157.378967 1213.663208,156.765640 
	C1200.229492,176.485962 1182.299316,174.129761 1171.508789,165.271591 
	C1158.708862,154.763962 1157.537964,134.621796 1168.940308,121.504112 
	C1174.024780,115.654564 1180.578125,112.601723 1188.186523,112.353271 
	C1199.557129,111.981979 1207.459595,118.151405 1213.490112,127.263588 
	C1216.575684,125.587227 1219.309570,124.101936 1222.029907,122.623924 
	C1214.779419,107.721687 1197.735840,99.261795 1182.051147,102.566933 
	C1158.369019,107.557335 1144.890625,131.823807 1153.025146,155.764984 
	C1158.093872,170.682617 1168.864258,179.878677 1184.571533,181.953964 
	C1200.186035,184.017014 1214.531738,175.977051 1221.741821,162.202728 
	C1221.741821,162.202728 1221.778442,162.266083 1222.064697,161.801712 
M287.111298,39.019386 
	C285.615356,39.074505 284.119446,39.129623 282.096222,39.233162 
	C281.648254,38.994911 281.200287,38.756660 280.921783,37.767452 
	C280.921783,36.329845 280.921783,34.892239 280.921783,33.454632 
	C280.583832,33.450638 280.245880,33.446648 279.907928,33.442654 
	C279.227295,34.654743 278.546661,35.866837 277.393707,37.079655 
	C277.393707,37.079655 277.032837,36.774937 277.068970,36.108227 
	C277.328369,31.465597 275.529846,29.413628 272.597260,29.280502 
	C270.915619,31.056747 269.942902,32.084198 268.279724,33.128399 
	C267.872314,32.934166 267.464935,32.739929 266.951385,31.888977 
	C264.944092,31.346031 262.936768,30.803085 260.163330,30.181295 
	C229.052017,19.753017 197.357376,17.435041 165.169739,23.866602 
	C108.092583,35.271450 64.761810,66.281990 37.148331,117.420372 
	C9.431670,168.749832 6.927361,222.596603 29.095079,276.366272 
	C50.816639,329.053741 89.926079,364.500427 144.357513,381.771393 
	C188.405365,395.747681 232.472778,393.809479 274.510620,374.544464 
	C332.016327,348.190857 368.368835,303.622406 380.863434,241.243454 
	C391.288116,189.198669 380.289612,141.136932 349.985718,97.552620 
	C337.911163,80.186462 322.656891,65.943855 305.811310,52.413692 
	C304.948181,52.130859 304.085052,51.848022 302.637360,51.334240 
	C301.085205,50.237717 299.533081,49.141190 297.881439,47.331257 
	C296.877563,46.908134 295.873688,46.485008 294.317657,45.954292 
	C293.887451,45.613239 293.457214,45.272186 292.945251,44.260822 
	C291.292633,42.504021 289.640015,40.747215 288.266724,38.890938 
	C288.181000,38.931465 288.095306,38.971992 287.111298,39.019386 
M1114.242554,251.403458 
	C1116.247681,252.052109 1118.252808,252.700775 1120.257935,253.349426 
	C1120.584106,252.802475 1120.910278,252.255524 1121.236450,251.708572 
	C1120.133911,250.133698 1119.031250,248.558838 1118.106201,246.234695 
	C1121.667969,235.633987 1117.062256,229.067993 1105.954102,228.946442 
	C1102.316040,228.906616 1098.677246,228.940170 1094.875488,228.940170 
	C1094.875488,242.422089 1094.875488,255.600769 1094.875488,268.694031 
	C1097.061279,268.694031 1098.949341,268.694031 1101.252075,268.694031 
	C1101.252075,262.978241 1101.252075,257.577087 1101.252075,252.530807 
	C1105.789062,251.908051 1109.860718,251.349167 1114.242554,251.403458 
M1264.038452,240.187500 
	C1263.939087,239.364258 1263.956299,238.506195 1263.722168,237.723282 
	C1261.909424,231.661438 1257.488159,228.099899 1251.863281,228.105453 
	C1246.596680,228.110657 1241.855835,231.359085 1240.341431,236.000458 
	C1238.815430,240.677734 1241.091919,245.173172 1247.007324,249.076233 
	C1249.631958,250.807983 1252.569336,252.187714 1254.833740,254.297302 
	C1256.180542,255.552048 1257.159302,257.961487 1257.034058,259.763611 
	C1256.953369,260.926270 1254.524536,262.857239 1253.234253,262.790039 
	C1251.209717,262.684601 1247.858643,261.535614 1247.523926,260.209198 
	C1246.256348,255.185196 1243.267090,256.458069 1240.082031,256.923615 
	C1240.757324,263.660004 1243.612915,267.721375 1248.379639,269.057343 
	C1253.378540,270.458313 1259.227783,268.709778 1261.847534,265.031403 
	C1265.086792,260.482849 1264.793457,256.237244 1260.976807,249.645508 
	C1262.278564,246.859879 1265.551514,244.759857 1264.038452,240.187500 
M626.397705,258.710114 
	C626.397705,258.710114 626.376709,258.581299 626.633118,257.830627 
	C625.738403,253.548279 624.843689,249.265930 624.308350,244.560196 
	C624.447205,244.037796 624.586060,243.515381 625.153748,242.434219 
	C628.332031,236.435394 633.381653,234.124924 640.455017,235.129272 
	C640.624634,235.118439 640.794312,235.107620 641.433228,235.588577 
	C644.064148,237.585876 646.695129,239.583160 650.356750,242.362915 
	C651.109253,240.604599 651.849609,238.874619 652.596924,236.673233 
	C652.067139,236.108200 651.537415,235.543167 650.854431,234.298401 
	C642.031921,225.801575 630.699646,227.750183 625.011597,232.540329 
	C616.841492,239.420609 614.939697,250.679245 620.400818,260.054657 
	C624.905640,267.788330 635.076599,271.468353 643.853943,268.540466 
	C652.411255,265.685974 657.525452,257.836121 656.438293,249.311005 
	C650.675049,249.311005 644.925598,249.311005 639.224731,249.311005 
	C639.224731,251.426575 639.224731,253.215302 639.224731,255.287048 
	C642.477112,255.429398 645.540833,255.563477 648.950989,255.712723 
	C647.117310,260.552124 643.577820,263.144989 639.311157,262.742462 
	C634.960022,262.331909 630.774841,260.162537 626.397705,258.710114 
M519.670776,261.014771 
	C519.081055,257.535278 518.367615,254.070297 517.957336,250.569778 
	C517.771057,248.981049 517.764465,247.132080 518.398132,245.726547 
	C521.675110,238.457703 517.539612,230.057877 509.671387,229.180847 
	C504.803192,228.638214 499.825256,229.080231 494.845032,229.080231 
	C494.845032,242.602112 494.845032,255.688080 494.845032,269.084412 
	C502.442657,268.450409 510.119507,270.731995 517.504639,266.064972 
	C518.131104,266.994965 518.757629,267.924927 520.079956,269.887848 
	C521.222168,267.854248 522.637756,266.337830 522.751587,264.729340 
	C522.813232,263.858459 520.654297,262.830444 519.670776,261.014771 
M521.500000,202.998779 
	C520.667053,202.998779 519.834045,202.998856 519.001099,202.998764 
	C498.838379,202.996490 478.675659,202.985107 458.512939,202.999481 
	C454.459839,203.002380 454.459869,203.047470 454.938751,206.788910 
	C738.975464,206.788910 1023.022339,206.788910 1307.122925,206.788910 
	C1308.208618,201.113724 1303.978027,203.074661 1301.848755,203.074005 
	C1042.065796,202.994400 782.282898,202.998764 521.500000,202.998779 
M499.023285,107.364738 
	C483.654388,100.014160 467.335236,104.179703 451.329193,102.802559 
	C451.329193,129.160858 451.329193,154.884064 451.329193,180.044449 
	C464.395905,180.044449 477.243469,180.873199 489.925812,179.781616 
	C500.030212,178.911926 508.961639,173.632812 513.151367,163.879852 
	C515.962830,157.335251 517.779297,149.933212 518.083801,142.830902 
	C518.722656,127.926865 513.426636,115.452225 499.023285,107.364738 
M634.500427,172.007553 
	C643.835510,180.469101 654.824097,184.333450 667.110291,181.437744 
	C690.921692,175.825684 703.165161,153.078979 695.964844,129.020279 
	C691.708923,114.799736 677.789795,103.066666 663.973389,102.053253 
	C647.361511,100.834793 632.766602,109.061623 626.097046,123.403358 
	C617.985718,140.845367 620.682251,157.352890 634.500427,172.007553 
M1121.300415,180.978729 
	C1121.156006,180.025345 1121.333984,178.820541 1120.817139,178.157501 
	C1115.605957,171.473877 1110.260132,164.895462 1104.996582,158.252441 
	C1102.174561,154.690872 1099.438843,151.060959 1096.438477,147.169052 
	C1097.671631,146.664215 1098.243408,146.336594 1098.858032,146.192337 
	C1109.394409,143.719955 1115.206299,137.505524 1116.132080,127.687065 
	C1117.102173,117.400566 1112.115356,108.484482 1102.260620,104.875778 
	C1091.228638,100.835960 1079.706543,103.759651 1068.399536,102.976929 
	C1068.399536,129.450623 1068.399536,155.152817 1068.399536,180.842361 
	C1071.902588,180.842361 1075.029297,180.842361 1078.790527,180.842361 
	C1078.790527,169.477341 1078.790527,158.274734 1078.790527,147.072144 
	C1079.230591,146.727875 1079.670654,146.383621 1080.110718,146.039352 
	C1082.259033,147.409195 1084.908203,148.359497 1086.468140,150.222137 
	C1092.958984,157.972610 1099.647827,165.648178 1105.227051,174.040649 
	C1109.201416,180.018906 1113.903320,182.019745 1121.300415,180.978729 
M1255.065552,154.500000 
	C1255.065552,163.258636 1255.065552,172.017288 1255.065552,180.719604 
	C1258.900391,180.719604 1262.138916,180.719604 1265.855835,180.719604 
	C1265.855835,169.375397 1265.855835,158.328735 1265.855835,147.257782 
	C1276.235107,147.257782 1286.117676,147.257782 1296.410522,147.257782 
	C1296.410522,158.696899 1296.410522,169.773682 1296.410522,180.688721 
	C1300.080688,180.688721 1303.328979,180.688721 1306.586182,180.688721 
	C1306.586182,154.640701 1306.586182,128.931259 1306.586182,103.291069 
	C1303.026367,103.291069 1299.783691,103.291069 1296.090576,103.291069 
	C1296.090576,114.669540 1296.090576,125.736542 1296.090576,136.850555 
	C1285.752686,136.850555 1275.886108,136.850555 1265.547852,136.850555 
	C1265.547852,125.360939 1265.547852,114.281593 1265.547852,103.305977 
	C1261.812134,103.305977 1258.560791,103.305977 1255.065918,103.305977 
	C1255.065918,120.260101 1255.065918,136.880035 1255.065552,154.500000 
M940.826904,113.531662 
	C940.826904,110.096970 940.826904,106.662270 940.826904,103.166481 
	C937.057739,103.166481 933.940491,103.166481 930.227478,103.166481 
	C930.227478,114.542221 930.227478,125.744987 930.227478,136.965897 
	C919.716003,136.965897 909.804138,136.965897 899.291504,136.965897 
	C899.291504,125.504097 899.291504,114.327133 899.291504,103.275017 
	C895.591614,103.275017 892.502502,103.275017 889.340576,103.275017 
	C889.340576,129.291290 889.340576,155.007126 889.340576,180.730469 
	C892.860291,180.730469 896.093384,180.730469 899.628540,180.730469 
	C899.628540,169.390671 899.628540,158.340942 899.628540,147.225250 
	C910.021606,147.225250 920.098083,147.225250 930.492859,147.225250 
	C930.492859,158.633423 930.492859,169.718430 930.492859,180.702194 
	C934.066589,180.702194 937.313354,180.702194 940.827515,180.702194 
	C940.827515,158.426559 940.827515,136.475266 940.826904,113.531662 
M834.257446,114.893867 
	C838.887085,118.741302 843.516785,122.588737 848.466125,126.701820 
	C850.578857,125.561569 853.312317,124.086334 856.031982,122.618523 
	C848.733643,107.604568 830.623901,98.716110 815.639709,102.573311 
	C796.482361,107.504761 783.727051,124.118843 784.579407,143.030106 
	C785.461060,162.588745 798.769104,178.735672 816.530640,181.797165 
	C832.756592,184.593948 850.485168,175.401825 856.038940,160.993271 
	C853.221680,159.562164 850.369385,158.113281 847.624817,156.719086 
	C836.024109,171.878113 822.224304,175.815460 809.461914,167.998932 
	C796.017761,159.764847 791.215393,142.700272 798.283752,128.279022 
	C804.929260,114.720772 819.069885,109.239059 834.257446,114.893867 
M1020.216614,177.813095 
	C1027.633423,172.629501 1032.125854,165.096069 1032.745361,156.546844 
	C1034.025879,138.874023 1033.985352,121.105484 1034.491211,103.269043 
	C1030.351196,103.269043 1027.133911,103.269043 1023.524597,103.269043 
	C1023.524597,117.345833 1023.924805,131.154984 1023.342224,144.922531 
	C1023.082153,151.066650 1021.623962,157.441727 1019.315979,163.148361 
	C1016.224121,170.793030 1007.493835,173.792862 999.646912,171.102341 
	C990.241760,167.877533 987.615479,159.912308 987.159851,151.411896 
	C986.475037,138.633438 986.804993,125.800354 986.714905,112.990417 
	C986.691895,109.720818 986.711487,106.450920 986.711487,103.326065 
	C982.920471,103.326065 979.686157,103.326065 976.941650,103.326065 
	C976.941650,121.123772 975.777893,138.654953 977.232178,155.966202 
	C979.109375,178.312454 1001.377563,189.339249 1020.216614,177.813095 
M560.736023,165.514740 
	C560.736023,159.433426 560.736023,153.352112 560.736023,146.806244 
	C570.276917,146.806244 579.199097,146.806244 588.272461,146.806244 
	C588.272461,143.434799 588.272461,140.549713 588.272461,137.173523 
	C578.993286,137.173523 570.081604,137.173523 560.991455,137.173523 
	C560.991455,128.774307 560.991455,120.873726 560.991455,112.507065 
	C571.082581,112.507065 580.843140,112.507065 590.872498,112.507065 
	C590.872498,109.148582 590.872498,106.258385 590.872498,103.274956 
	C577.548340,103.274956 564.479370,103.274956 551.351196,103.274956 
	C551.351196,129.290009 551.351196,155.006897 551.351196,180.759430 
	C564.736816,180.759430 577.823730,180.759430 590.923706,180.759430 
	C590.923706,177.710724 590.923706,174.927414 590.923706,171.544922 
	C580.818787,171.544922 570.926086,171.544922 560.737976,171.544922 
	C560.737976,169.473099 560.737976,167.999893 560.736023,165.514740 
M1165.011841,253.556610 
	C1165.011841,250.322815 1165.011841,247.089035 1165.011841,243.855240 
	C1165.306519,243.789597 1165.601196,243.723969 1165.895996,243.658340 
	C1170.359131,252.086868 1174.822266,260.515411 1179.154907,268.697388 
	C1181.528076,268.697388 1183.609131,268.697388 1185.645508,268.697388 
	C1185.645508,255.302612 1185.645508,242.227707 1185.645508,229.110855 
	C1183.525635,229.110855 1181.713867,229.110855 1179.150269,229.110855 
	C1179.150269,237.496048 1179.150269,245.764481 1179.150269,254.032913 
	C1174.521606,247.247086 1170.592163,240.516266 1167.390625,233.455475 
	C1165.497192,229.279892 1163.020752,228.057602 1158.790161,229.376022 
	C1158.790161,242.440735 1158.790161,255.550949 1158.790161,268.711151 
	C1160.919678,268.711151 1162.824951,268.711151 1165.010742,268.711151 
	C1165.010742,263.816193 1165.010742,259.176453 1165.011841,253.556610 
M574.622375,247.500595 
	C574.622375,254.583206 574.622375,261.665802 574.622375,268.811157 
	C577.018311,268.811157 578.795959,268.811157 581.139771,268.811157 
	C581.139771,260.367554 581.139771,252.064255 581.139771,243.760971 
	C585.541687,250.539322 589.517578,257.246155 592.685791,264.315063 
	C594.632324,268.658142 597.202026,269.898804 601.578491,268.623138 
	C601.578491,255.475876 601.578491,242.298065 601.578491,229.172943 
	C599.409851,229.172943 597.620728,229.172943 595.250000,229.172943 
	C595.250000,237.535522 595.250000,245.703369 595.250000,253.871231 
	C590.504578,247.167999 586.587341,240.331543 583.270752,233.215149 
	C581.344666,229.082352 578.815430,228.047028 574.618896,229.533417 
	C574.618896,235.209290 574.618896,240.855377 574.622375,247.500595 
M675.414368,260.872681 
	C679.475220,267.948944 684.078735,270.529175 690.666870,269.421417 
	C697.371887,268.294037 702.412048,263.418884 702.967102,255.766983 
	C703.600708,247.032013 703.113708,238.215775 703.113708,229.203537 
	C701.287170,229.203537 699.386475,229.203537 697.054260,229.203537 
	C697.054260,236.338730 697.257080,243.298920 696.960938,250.237839 
	C696.830627,253.290314 696.432007,256.829559 694.773132,259.166962 
	C693.347717,261.175354 689.882874,262.863647 687.456665,262.697449 
	C685.301697,262.549805 682.702454,260.024933 681.463013,257.877686 
	C680.229492,255.740768 680.146606,252.774841 680.082581,250.159607 
	C679.912537,243.213242 680.024841,236.259949 680.024841,229.213654 
	C677.700928,229.213654 675.804199,229.213654 672.906128,229.213654 
	C673.654663,239.729202 674.381897,249.945953 675.414368,260.872681 
M929.979248,267.249573 
	C929.979248,262.170135 929.979248,257.090668 929.979248,252.143509 
	C935.031799,252.143509 939.309021,252.143509 943.995850,252.143509 
	C943.995850,257.777954 943.995850,263.191620 943.995850,268.762085 
	C946.315674,268.762085 948.216064,268.762085 950.204468,268.762085 
	C950.204468,255.463791 950.204468,242.411224 950.204468,229.273972 
	C948.057129,229.273972 946.165405,229.273972 943.849121,229.273972 
	C943.849121,234.957275 943.849121,240.365646 943.849121,245.716675 
	C939.019104,245.716675 934.623840,245.716675 929.830688,245.716675 
	C929.830688,240.009338 929.830688,234.598648 929.830688,229.318817 
	C927.513306,229.318817 925.610046,229.318817 923.947571,229.318817 
	C923.947571,242.706390 923.947571,255.756683 923.947571,269.353424 
	C926.233215,268.914520 928.079041,268.560059 929.979248,267.249573 
M552.194458,245.971237 
	C549.070862,245.971237 545.947266,245.971237 542.871826,245.971237 
	C542.871826,242.070847 542.871826,238.671829 542.871826,234.739471 
	C547.914856,234.739471 552.648560,234.739471 557.549805,234.739471 
	C557.549805,232.605301 557.549805,231.018631 557.549805,229.299240 
	C550.531738,229.299240 543.676514,229.299240 536.857605,229.299240 
	C536.857605,242.684448 536.857605,255.734711 536.857605,268.697693 
	C543.931152,268.697693 550.686340,268.697693 557.831970,268.697693 
	C557.721802,266.636566 557.630615,264.929077 557.512939,262.726868 
	C552.246948,262.726868 547.525879,262.726868 542.765747,262.726868 
	C542.765747,258.932404 542.765747,255.668137 542.765747,251.849335 
	C547.354126,251.849335 551.733948,251.849335 556.380371,251.849335 
	C555.876953,249.070786 558.040344,245.531082 552.194458,245.971237 
M1224.759521,231.475632 
	C1224.059204,230.643143 1223.380127,229.110229 1222.655029,229.088058 
	C1216.402222,228.896927 1210.140991,228.978165 1203.745117,228.978165 
	C1203.745117,242.586853 1203.745117,255.669174 1203.745117,268.731384 
	C1210.809082,268.731384 1217.559570,268.731384 1224.528809,268.731384 
	C1224.528809,266.734985 1224.528809,265.029266 1224.528809,262.906982 
	C1219.446167,262.906982 1214.684692,262.906982 1209.853638,262.906982 
	C1209.853638,259.093719 1209.853638,255.702866 1209.853638,251.918167 
	C1214.380127,251.918167 1218.631592,251.918167 1223.051880,251.918167 
	C1223.051880,249.750351 1223.051880,247.988510 1223.051880,245.854584 
	C1218.498901,245.854584 1214.226440,245.854584 1209.875977,245.854584 
	C1209.875977,242.083572 1209.875977,238.692947 1209.875977,234.908783 
	C1213.801392,234.908783 1217.446167,235.130753 1221.038208,234.792099 
	C1222.349487,234.668472 1223.535156,233.212143 1224.759521,231.475632 
M720.542358,256.480530 
	C720.542358,260.584381 720.542358,264.688263 720.542358,268.709167 
	C727.914978,268.709167 734.679382,268.709167 741.828369,268.709167 
	C741.707214,266.657440 741.605896,264.940338 741.474915,262.722046 
	C736.266357,262.722046 731.538391,262.722046 726.811523,262.722046 
	C726.811523,258.926300 726.811523,255.666580 726.811523,252.025726 
	C731.330750,252.025726 735.598633,252.025726 740.092896,252.025726 
	C740.092896,249.879379 740.092896,248.122482 740.092896,245.770477 
	C735.511536,245.770477 731.142578,245.770477 726.824829,245.770477 
	C726.824829,241.902985 726.824829,238.633484 726.824829,234.819977 
	C731.808594,234.819977 736.546021,234.819977 741.417847,234.819977 
	C741.417847,232.568237 741.417847,230.874329 741.417847,229.270798 
	C734.319702,229.270798 727.581848,229.270798 720.544250,229.270798 
	C720.544250,238.211060 720.544250,246.848465 720.542358,256.480530 
M887.503845,268.999634 
	C888.004822,267.673828 888.878784,266.364380 888.937744,265.019196 
	C889.124573,260.759125 889.006775,256.485718 889.006775,251.845779 
	C892.216919,251.845779 894.875977,252.082138 897.478210,251.798050 
	C903.454285,251.145584 907.463379,246.712311 907.689392,240.852753 
	C907.893555,235.562439 903.369507,229.598740 898.123413,229.134674 
	C893.090088,228.689453 887.986450,229.038498 882.885376,229.038498 
	C882.885376,242.643051 882.885376,255.705627 882.885376,269.007233 
	C884.285889,269.007233 885.437561,269.007233 887.503845,268.999634 
M1054.966064,228.982330 
	C1054.510132,230.383423 1053.689697,231.776932 1053.660400,233.186890 
	C1053.521973,239.838562 1053.600342,246.494720 1053.600830,253.149292 
	C1053.601318,258.375519 1053.600952,263.601715 1053.600952,268.814331 
	C1056.121826,268.814331 1057.887939,268.814331 1060.047607,268.814331 
	C1060.047607,263.211151 1060.047607,257.790070 1060.047607,251.907196 
	C1062.891357,251.907196 1065.370361,252.133530 1067.794556,251.865616 
	C1075.735474,250.987991 1078.564575,246.328568 1078.693604,240.064621 
	C1078.820190,233.920059 1073.419189,229.152313 1066.865234,228.967560 
	C1063.208862,228.864487 1059.547119,228.950424 1054.966064,228.982330 
M768.408813,268.904449 
	C768.603699,267.131165 768.956543,265.358856 768.967102,263.584473 
	C769.023193,254.142319 768.993469,244.699646 768.993469,235.059967 
	C771.167297,234.925476 772.918518,234.817139 774.810425,234.700089 
	C774.810425,232.679810 774.810425,230.976135 774.810425,229.369659 
	C768.483704,229.369659 762.441040,229.369659 756.187378,229.369659 
	C756.363586,231.373367 756.503540,232.965683 756.643372,234.555450 
	C758.774231,234.829590 760.538391,235.056564 762.657593,235.329208 
	C762.657593,246.597137 762.657593,257.670532 762.657593,269.014374 
	C764.527893,269.014374 766.010559,269.014374 768.408813,268.904449 
M998.013184,236.564240 
	C998.013184,234.125290 998.013184,231.686340 998.013184,229.310577 
	C995.592285,229.310577 993.691772,229.310577 991.956909,229.310577 
	C991.956909,242.666733 991.956909,255.708832 991.956909,268.648254 
	C999.166687,268.648254 1006.050232,268.648254 1013.072998,268.648254 
	C1012.970520,266.509949 1012.885376,264.733948 1012.777039,262.473602 
	C1007.694824,262.473602 1002.954651,262.473602 998.336548,262.473602 
	C998.156616,261.644928 998.025269,261.320648 998.024780,260.996155 
	C998.012451,253.179367 998.014099,245.362595 998.013184,236.564240 
M830.705627,255.791245 
	C835.513245,253.372665 836.199951,249.199829 835.360107,244.503113 
	C834.468811,239.518829 831.777039,237.556396 826.636536,237.893661 
	C822.137146,238.188858 819.343384,240.943008 818.995605,245.426331 
	C818.382812,253.327591 821.553528,256.409241 830.705627,255.791245 
M967.650024,247.500107 
	C967.650024,254.568695 967.650024,261.637299 967.650024,268.681091 
	C970.072754,268.681091 971.949158,268.681091 973.764038,268.681091 
	C973.764038,255.323532 973.764038,242.290726 973.764038,229.303680 
	C971.601440,229.303680 969.705017,229.303680 967.649963,229.303680 
	C967.649963,235.238907 967.649963,240.869751 967.650024,247.500107 
M1030.642334,239.510651 
	C1030.642334,249.236832 1030.642334,258.963013 1030.642334,268.690002 
	C1033.047974,268.690002 1034.930542,268.690002 1036.749512,268.690002 
	C1036.749512,255.340546 1036.749512,242.302933 1036.749512,229.291321 
	C1034.585083,229.291321 1032.684326,229.291321 1030.638550,229.291321 
	C1030.638550,232.563461 1030.638550,235.540039 1030.642334,239.510651 
M1134.622681,245.500763 
	C1134.622681,253.234344 1134.622681,260.967926 1134.622681,268.684875 
	C1137.070557,268.684875 1138.949707,268.684875 1140.742188,268.684875 
	C1140.742188,255.330429 1140.742188,242.292923 1140.742188,229.293915 
	C1138.575439,229.293915 1136.673950,229.293915 1134.622803,229.293915 
	C1134.622803,234.562149 1134.622803,239.531906 1134.622681,245.500763 
M522.416199,257.483643 
	C522.416199,257.483643 522.522949,257.419586 522.416199,257.483643 
z"/>
<path fill="#080808" opacity="1.000000" stroke="none" 
	d="
M280.752319,38.518410 
	C281.200287,38.756660 281.648254,38.994911 282.526520,39.521374 
	C286.313538,41.516773 289.670258,43.223957 293.026978,44.931141 
	C293.457214,45.272186 293.887451,45.613239 294.713257,46.312878 
	C296.066223,47.129200 297.023590,47.586941 297.980927,48.044674 
	C299.533081,49.141190 301.085205,50.237717 303.109070,51.725807 
	C304.353760,52.483025 305.126709,52.848682 305.899658,53.214333 
	C322.656891,65.943855 337.911163,80.186462 349.985718,97.552620 
	C380.289612,141.136932 391.288116,189.198669 380.863434,241.243454 
	C368.368835,303.622406 332.016327,348.190857 274.510620,374.544464 
	C232.472778,393.809479 188.405365,395.747681 144.357513,381.771393 
	C89.926079,364.500427 50.816639,329.053741 29.095079,276.366272 
	C6.927361,222.596603 9.431670,168.749832 37.148331,117.420372 
	C64.761810,66.281990 108.092583,35.271450 165.169739,23.866602 
	C197.357376,17.435041 229.052017,19.753017 260.758301,30.476730 
	C263.254700,31.363342 265.156097,31.954517 267.057526,32.545692 
	C267.464935,32.739929 267.872314,32.934166 268.815826,33.403191 
	C271.912231,34.710300 274.472534,35.742619 277.032837,36.774937 
	C277.032837,36.774937 277.393707,37.079655 277.805786,37.369110 
	C279.062683,37.945179 279.907501,38.231792 280.752319,38.518410 
M90.941345,79.956718 
	C90.941345,79.956718 90.850433,79.811874 90.219238,79.975227 
	C89.293999,80.882614 88.368752,81.790009 87.072693,82.887192 
	C87.072693,82.887192 86.910103,83.270706 86.344681,83.512901 
	C84.248604,85.685852 82.152534,87.858795 79.997292,90.007866 
	C79.997292,90.007866 80.034142,90.059975 79.446388,90.323830 
	C78.044586,91.894394 76.642784,93.464951 74.726402,95.486855 
	C73.950874,96.355721 73.165848,97.216309 72.401184,98.094627 
	C25.095407,152.432571 20.296839,236.639771 61.080822,297.746460 
	C71.965218,314.054565 85.170502,328.156128 101.718330,339.862244 
	C102.464233,340.275391 103.210144,340.688538 104.315956,341.621429 
	C105.728104,342.481415 107.140251,343.341400 108.860001,344.807709 
	C109.851410,345.326721 110.842819,345.845734 112.272339,346.873322 
	C135.938965,361.353699 161.307297,370.207611 189.919891,370.619568 
	C189.919891,358.909760 189.723602,347.617371 190.025711,336.338318 
	C190.132339,332.357025 188.592163,331.575409 185.071320,330.786621 
	C174.882843,328.504089 164.548370,326.367035 154.784637,322.776703 
	C90.246506,299.044434 64.503983,234.763596 76.021759,178.251770 
	C86.175095,128.434540 127.650887,89.600060 177.468674,80.922096 
	C181.517197,80.216873 185.570724,79.540245 189.636047,78.847916 
	C189.636047,65.653709 189.636047,52.896702 189.636047,39.052345 
	C180.571854,40.404991 171.829269,41.220928 163.312668,43.074909 
	C140.464569,48.048695 119.516617,57.369907 100.334373,71.903000 
	C99.577705,72.604668 98.821045,73.306343 97.573814,74.057259 
	C97.237915,74.191116 97.035538,74.435524 96.345879,74.896362 
	C95.611496,75.615059 94.877121,76.333763 93.587181,77.172195 
	C93.399933,77.469147 93.212677,77.766090 92.428062,78.168800 
	C91.888931,78.727997 91.349808,79.287193 90.941345,79.956718 
M320.334015,87.074974 
	C319.806763,86.634819 319.279541,86.194664 318.493530,85.164825 
	C317.549286,84.318787 316.605042,83.472748 315.391907,82.032265 
	C314.406677,81.222984 313.421448,80.413704 312.258453,79.764900 
	C312.258453,79.764900 312.383728,79.560791 312.106537,78.965218 
	C309.471252,76.836143 306.835968,74.707062 303.939819,72.100868 
	C303.348358,71.707581 302.756897,71.314285 301.911926,70.320213 
	C300.985168,69.789169 300.058441,69.258125 298.872223,68.106812 
	C272.421753,48.845547 242.732697,39.520058 210.168030,38.824192 
	C210.168030,149.690445 210.168030,260.203705 210.168030,371.084595 
	C213.361954,370.865051 216.188049,370.865723 218.951797,370.450989 
	C250.515991,365.714294 279.096802,354.803284 304.522980,334.474060 
	C345.682831,301.565216 364.886414,258.900360 365.965271,207.108459 
	C366.571869,177.986801 358.568878,150.856720 345.914032,125.018707 
	C341.789825,116.598122 336.141296,108.924110 331.057831,100.222565 
	C328.416687,97.092377 325.775513,93.962196 323.025360,90.933304 
	C323.025360,90.933304 323.162781,90.876221 323.085510,90.244904 
	C322.193634,89.371681 321.301758,88.498466 320.052582,87.872681 
	C320.052582,87.872681 320.388153,87.596458 320.334015,87.074974 
M125.922279,283.862305 
	C126.763687,284.513855 127.605103,285.165405 128.570145,285.983551 
	C128.570145,285.983551 128.763947,286.057526 128.922577,286.672302 
	C129.590897,287.168121 130.259216,287.663940 131.123398,288.736816 
	C132.265106,289.559479 133.406815,290.382141 134.828552,291.787201 
	C135.540634,292.218628 136.252716,292.650085 137.316010,293.653870 
	C152.768784,305.401825 169.747131,312.632721 189.915604,311.908356 
	C189.915604,299.514618 190.023804,287.708374 189.766052,275.910095 
	C189.736862,274.573883 187.904083,272.740479 186.470245,272.062012 
	C179.286530,268.662903 171.661362,266.108032 164.727356,262.284454 
	C122.493324,238.995590 121.905792,180.680771 157.026215,152.619797 
	C166.716919,144.876999 177.790482,140.338577 189.840302,137.877136 
	C189.840302,124.735092 189.840302,111.798782 189.840302,98.383339 
	C186.091568,98.835091 182.628174,99.086678 179.226440,99.687485 
	C135.088913,107.482872 98.744812,145.559631 92.961685,190.103088 
	C88.437462,224.950058 99.265747,254.738449 123.031059,280.856659 
	C123.939491,281.660614 124.847923,282.464539 125.966019,283.039032 
	C125.966019,283.039032 125.733376,283.245148 125.922279,283.862305 
M190.072037,180.500031 
	C190.072037,173.025803 190.072037,165.551590 190.072037,158.062729 
	C169.283966,159.257385 151.016968,181.170212 150.666168,204.968674 
	C150.319992,228.454514 168.637360,250.977036 190.072037,252.797684 
	C190.072037,229.003723 190.072037,205.251877 190.072037,180.500031 
z"/>
<path fill="#0A0A0A" opacity="1.000000" stroke="none" 
	d="
M522.000000,202.998779 
	C782.282898,202.998764 1042.065796,202.994400 1301.848755,203.074005 
	C1303.978027,203.074661 1308.208618,201.113724 1307.122925,206.788910 
	C1023.022339,206.788910 738.975464,206.788910 454.938751,206.788910 
	C454.459869,203.047470 454.459839,203.002380 458.512939,202.999481 
	C478.675659,202.985107 498.838379,202.996490 519.001099,202.998764 
	C519.834045,202.998856 520.667053,202.998779 522.000000,202.998779 
z"/>
<path fill="#0D0D0D" opacity="1.000000" stroke="none" 
	d="
M499.309082,107.607536 
	C513.426636,115.452225 518.722656,127.926865 518.083801,142.830902 
	C517.779297,149.933212 515.962830,157.335251 513.151367,163.879852 
	C508.961639,173.632812 500.030212,178.911926 489.925812,179.781616 
	C477.243469,180.873199 464.395905,180.044449 451.329193,180.044449 
	C451.329193,154.884064 451.329193,129.160858 451.329193,102.802559 
	C467.335236,104.179703 483.654388,100.014160 499.309082,107.607536 
M490.319275,169.176865 
	C498.905182,167.128204 504.696625,161.752823 506.353455,153.256195 
	C507.534363,147.200333 507.690033,140.700439 506.938721,134.565811 
	C505.621155,123.807472 497.305206,115.403229 486.632355,114.251816 
	C478.612518,113.386612 470.424469,114.080818 462.119415,114.080818 
	C462.119415,132.594498 462.119415,151.438110 462.119415,170.859604 
	C471.585632,170.338394 480.538818,169.845444 490.319275,169.176865 
z"/>
<path fill="#0D0D0D" opacity="1.000000" stroke="none" 
	d="
M634.230713,171.775940 
	C620.682251,157.352890 617.985718,140.845367 626.097046,123.403358 
	C632.766602,109.061623 647.361511,100.834793 663.973389,102.053253 
	C677.789795,103.066666 691.708923,114.799736 695.964844,129.020279 
	C703.165161,153.078979 690.921692,175.825684 667.110291,181.437744 
	C654.824097,184.333450 643.835510,180.469101 634.230713,171.775940 
M685.760315,152.935425 
	C686.137939,147.055435 687.464233,141.049591 686.704163,135.320557 
	C684.884460,121.605515 671.065613,111.041664 658.048157,112.474007 
	C645.422119,113.863289 637.252991,120.991699 633.557007,132.780212 
	C629.764282,144.877243 632.525574,155.937805 641.871582,164.620041 
	C656.090149,177.828857 678.067688,172.269821 685.760315,152.935425 
z"/>
<path fill="#0E0E0E" opacity="1.000000" stroke="none" 
	d="
M1120.911865,180.997498 
	C1113.903320,182.019745 1109.201416,180.018906 1105.227051,174.040649 
	C1099.647827,165.648178 1092.958984,157.972610 1086.468140,150.222137 
	C1084.908203,148.359497 1082.259033,147.409195 1080.110718,146.039352 
	C1079.670654,146.383621 1079.230591,146.727875 1078.790527,147.072144 
	C1078.790527,158.274734 1078.790527,169.477341 1078.790527,180.842361 
	C1075.029297,180.842361 1071.902588,180.842361 1068.399536,180.842361 
	C1068.399536,155.152817 1068.399536,129.450623 1068.399536,102.976929 
	C1079.706543,103.759651 1091.228638,100.835960 1102.260620,104.875778 
	C1112.115356,108.484482 1117.102173,117.400566 1116.132080,127.687065 
	C1115.206299,137.505524 1109.394409,143.719955 1098.858032,146.192337 
	C1098.243408,146.336594 1097.671631,146.664215 1096.438477,147.169052 
	C1099.438843,151.060959 1102.174561,154.690872 1104.996582,158.252441 
	C1110.260132,164.895462 1115.605957,171.473877 1120.817139,178.157501 
	C1121.333984,178.820541 1121.156006,180.025345 1120.911865,180.997498 
M1100.681152,134.481705 
	C1105.180664,132.180008 1106.530151,128.111374 1105.795532,123.621140 
	C1105.003784,118.781441 1102.085327,114.850754 1097.012207,114.135574 
	C1091.177246,113.312965 1085.207031,113.449913 1079.039307,113.157974 
	C1079.039307,121.282555 1079.039307,128.630356 1079.039307,136.988861 
	C1086.315674,136.242767 1093.133789,135.543655 1100.681152,134.481705 
z"/>
<path fill="#101010" opacity="1.000000" stroke="none" 
	d="
M1255.065674,153.999985 
	C1255.065918,136.880035 1255.065918,120.260101 1255.065918,103.305977 
	C1258.560791,103.305977 1261.812134,103.305977 1265.547852,103.305977 
	C1265.547852,114.281593 1265.547852,125.360939 1265.547852,136.850555 
	C1275.886108,136.850555 1285.752686,136.850555 1296.090576,136.850555 
	C1296.090576,125.736542 1296.090576,114.669540 1296.090576,103.291069 
	C1299.783691,103.291069 1303.026367,103.291069 1306.586182,103.291069 
	C1306.586182,128.931259 1306.586182,154.640701 1306.586182,180.688721 
	C1303.328979,180.688721 1300.080688,180.688721 1296.410522,180.688721 
	C1296.410522,169.773682 1296.410522,158.696899 1296.410522,147.257782 
	C1286.117676,147.257782 1276.235107,147.257782 1265.855835,147.257782 
	C1265.855835,158.328735 1265.855835,169.375397 1265.855835,180.719604 
	C1262.138916,180.719604 1258.900391,180.719604 1255.065552,180.719604 
	C1255.065552,172.017288 1255.065552,163.258636 1255.065674,153.999985 
z"/>
<path fill="#0F0F0F" opacity="1.000000" stroke="none" 
	d="
M940.827209,114.027824 
	C940.827515,136.475266 940.827515,158.426559 940.827515,180.702194 
	C937.313354,180.702194 934.066589,180.702194 930.492859,180.702194 
	C930.492859,169.718430 930.492859,158.633423 930.492859,147.225250 
	C920.098083,147.225250 910.021606,147.225250 899.628540,147.225250 
	C899.628540,158.340942 899.628540,169.390671 899.628540,180.730469 
	C896.093384,180.730469 892.860291,180.730469 889.340576,180.730469 
	C889.340576,155.007126 889.340576,129.291290 889.340576,103.275017 
	C892.502502,103.275017 895.591614,103.275017 899.291504,103.275017 
	C899.291504,114.327133 899.291504,125.504097 899.291504,136.965897 
	C909.804138,136.965897 919.716003,136.965897 930.227478,136.965897 
	C930.227478,125.744987 930.227478,114.542221 930.227478,103.166481 
	C933.940491,103.166481 937.057739,103.166481 940.826904,103.166481 
	C940.826904,106.662270 940.826904,110.096970 940.827209,114.027824 
z"/>
<path fill="#0E0E0E" opacity="1.000000" stroke="none" 
	d="
M833.889954,114.756226 
	C819.069885,109.239059 804.929260,114.720772 798.283752,128.279022 
	C791.215393,142.700272 796.017761,159.764847 809.461914,167.998932 
	C822.224304,175.815460 836.024109,171.878113 847.624817,156.719086 
	C850.369385,158.113281 853.221680,159.562164 856.038940,160.993271 
	C850.485168,175.401825 832.756592,184.593948 816.530640,181.797165 
	C798.769104,178.735672 785.461060,162.588745 784.579407,143.030106 
	C783.727051,124.118843 796.482361,107.504761 815.639709,102.573311 
	C830.623901,98.716110 848.733643,107.604568 856.031982,122.618523 
	C853.312317,124.086334 850.578857,125.561569 848.466125,126.701820 
	C843.516785,122.588737 838.887085,118.741302 833.889954,114.756226 
z"/>
<path fill="#0D0D0D" opacity="1.000000" stroke="none" 
	d="
M1221.780273,162.267395 
	C1214.531738,175.977051 1200.186035,184.017014 1184.571533,181.953964 
	C1168.864258,179.878677 1158.093872,170.682617 1153.025146,155.764984 
	C1144.890625,131.823807 1158.369019,107.557335 1182.051147,102.566933 
	C1197.735840,99.261795 1214.779419,107.721687 1222.029907,122.623924 
	C1219.309570,124.101936 1216.575684,125.587227 1213.490112,127.263588 
	C1207.459595,118.151405 1199.557129,111.981979 1188.186523,112.353271 
	C1180.578125,112.601723 1174.024780,115.654564 1168.940308,121.504112 
	C1157.537964,134.621796 1158.708862,154.763962 1171.508789,165.271591 
	C1182.299316,174.129761 1200.229492,176.485962 1213.663208,156.765640 
	C1214.880615,157.378967 1216.155029,158.020966 1217.772705,159.257721 
	C1219.337524,160.657455 1220.558960,161.462418 1221.780273,162.267395 
M1215.409424,162.483826 
	C1215.409424,162.483826 1215.521362,162.416901 1215.409424,162.483826 
z"/>
<path fill="#0C0C0C" opacity="1.000000" stroke="none" 
	d="
M1019.888794,177.974762 
	C1001.377563,189.339249 979.109375,178.312454 977.232178,155.966202 
	C975.777893,138.654953 976.941650,121.123772 976.941650,103.326065 
	C979.686157,103.326065 982.920471,103.326065 986.711487,103.326065 
	C986.711487,106.450920 986.691895,109.720818 986.714905,112.990417 
	C986.804993,125.800354 986.475037,138.633438 987.159851,151.411896 
	C987.615479,159.912308 990.241760,167.877533 999.646912,171.102341 
	C1007.493835,173.792862 1016.224121,170.793030 1019.315979,163.148361 
	C1021.623962,157.441727 1023.082153,151.066650 1023.342224,144.922531 
	C1023.924805,131.154984 1023.524597,117.345833 1023.524597,103.269043 
	C1027.133911,103.269043 1030.351196,103.269043 1034.491211,103.269043 
	C1033.985352,121.105484 1034.025879,138.874023 1032.745361,156.546844 
	C1032.125854,165.096069 1027.633423,172.629501 1019.888794,177.974762 
z"/>
<path fill="#0C0C0C" opacity="1.000000" stroke="none" 
	d="
M560.737000,166.020721 
	C560.737976,167.999893 560.737976,169.473099 560.737976,171.544922 
	C570.926086,171.544922 580.818787,171.544922 590.923706,171.544922 
	C590.923706,174.927414 590.923706,177.710724 590.923706,180.759430 
	C577.823730,180.759430 564.736816,180.759430 551.351196,180.759430 
	C551.351196,155.006897 551.351196,129.290009 551.351196,103.274956 
	C564.479370,103.274956 577.548340,103.274956 590.872498,103.274956 
	C590.872498,106.258385 590.872498,109.148582 590.872498,112.507065 
	C580.843140,112.507065 571.082581,112.507065 560.991455,112.507065 
	C560.991455,120.873726 560.991455,128.774307 560.991455,137.173523 
	C570.081604,137.173523 578.993286,137.173523 588.272461,137.173523 
	C588.272461,140.549713 588.272461,143.434799 588.272461,146.806244 
	C579.199097,146.806244 570.276917,146.806244 560.736023,146.806244 
	C560.736023,153.352112 560.736023,159.433426 560.737000,166.020721 
z"/>
<path fill="#101010" opacity="1.000000" stroke="none" 
	d="
M1165.011230,254.046661 
	C1165.010742,259.176453 1165.010742,263.816193 1165.010742,268.711151 
	C1162.824951,268.711151 1160.919678,268.711151 1158.790161,268.711151 
	C1158.790161,255.550949 1158.790161,242.440735 1158.790161,229.376022 
	C1163.020752,228.057602 1165.497192,229.279892 1167.390625,233.455475 
	C1170.592163,240.516266 1174.521606,247.247086 1179.150269,254.032913 
	C1179.150269,245.764481 1179.150269,237.496048 1179.150269,229.110855 
	C1181.713867,229.110855 1183.525635,229.110855 1185.645508,229.110855 
	C1185.645508,242.227707 1185.645508,255.302612 1185.645508,268.697388 
	C1183.609131,268.697388 1181.528076,268.697388 1179.154907,268.697388 
	C1174.822266,260.515411 1170.359131,252.086868 1165.895996,243.658340 
	C1165.601196,243.723969 1165.306519,243.789597 1165.011841,243.855240 
	C1165.011841,247.089035 1165.011841,250.322815 1165.011230,254.046661 
z"/>
<path fill="#101010" opacity="1.000000" stroke="none" 
	d="
M574.620605,247.001038 
	C574.618896,240.855377 574.618896,235.209290 574.618896,229.533417 
	C578.815430,228.047028 581.344666,229.082352 583.270752,233.215149 
	C586.587341,240.331543 590.504578,247.167999 595.250000,253.871231 
	C595.250000,245.703369 595.250000,237.535522 595.250000,229.172943 
	C597.620728,229.172943 599.409851,229.172943 601.578491,229.172943 
	C601.578491,242.298065 601.578491,255.475876 601.578491,268.623138 
	C597.202026,269.898804 594.632324,268.658142 592.685791,264.315063 
	C589.517578,257.246155 585.541687,250.539322 581.139771,243.760971 
	C581.139771,252.064255 581.139771,260.367554 581.139771,268.811157 
	C578.795959,268.811157 577.018311,268.811157 574.622375,268.811157 
	C574.622375,261.665802 574.622375,254.583206 574.620605,247.001038 
z"/>
<path fill="#0C0C0C" opacity="1.000000" stroke="none" 
	d="
M516.880737,265.949097 
	C510.119507,270.731995 502.442657,268.450409 494.845032,269.084412 
	C494.845032,255.688080 494.845032,242.602112 494.845032,229.080231 
	C499.825256,229.080231 504.803192,228.638214 509.671387,229.180847 
	C517.539612,230.057877 521.675110,238.457703 518.398132,245.726547 
	C517.764465,247.132080 517.771057,248.981049 517.957336,250.569778 
	C518.367615,254.070297 519.081055,257.535278 519.350586,261.639984 
	C518.313843,263.493164 517.597290,264.721130 516.880737,265.949097 
M501.072845,252.748932 
	C501.072845,255.978806 501.072845,259.208679 501.072845,262.573700 
	C503.984528,262.573700 506.287659,262.727112 508.562134,262.537079 
	C511.815582,262.265228 513.920654,260.341614 513.707031,257.068451 
	C513.503296,253.947678 511.481995,251.986313 508.134033,251.935226 
	C505.991150,251.902496 503.846069,252.012787 501.072845,252.748932 
M510.974152,236.456985 
	C507.811859,235.936386 504.649567,235.415802 501.168762,234.842773 
	C501.168762,238.874924 501.168762,241.965363 501.168762,245.443527 
	C503.482117,245.443527 505.619049,245.615280 507.719147,245.410233 
	C513.277283,244.867554 514.539062,242.058136 510.974152,236.456985 
z"/>
<path fill="#101010" opacity="1.000000" stroke="none" 
	d="
M652.589966,237.144638 
	C651.849609,238.874619 651.109253,240.604599 650.356750,242.362915 
	C646.695129,239.583160 644.064148,237.585876 641.193298,235.090820 
	C640.837402,234.301208 640.721375,234.009369 640.605347,233.717529 
	C640.402954,234.112564 640.200562,234.507599 639.998169,234.902634 
	C633.381653,234.124924 628.332031,236.435394 624.669312,242.753815 
	C624.106262,243.710129 624.027588,244.346848 623.948914,244.983582 
	C624.843689,249.265930 625.738403,253.548279 626.301147,258.302246 
	C625.951416,258.966919 625.933716,259.159973 625.915955,259.353027 
	C626.116333,259.156433 626.316650,258.959839 626.516968,258.763245 
	C630.774841,260.162537 634.960022,262.331909 639.311157,262.742462 
	C643.577820,263.144989 647.117310,260.552124 648.950989,255.712723 
	C645.540833,255.563477 642.477112,255.429398 639.224731,255.287048 
	C639.224731,253.215302 639.224731,251.426575 639.224731,249.311005 
	C644.925598,249.311005 650.675049,249.311005 656.438293,249.311005 
	C657.525452,257.836121 652.411255,265.685974 643.853943,268.540466 
	C635.076599,271.468353 624.905640,267.788330 620.400818,260.054657 
	C614.939697,250.679245 616.841492,239.420609 625.011597,232.540329 
	C630.699646,227.750183 642.031921,225.801575 650.974915,235.002136 
	C651.593567,236.185471 652.091797,236.665054 652.589966,237.144638 
z"/>
<path fill="#101010" opacity="1.000000" stroke="none" 
	d="
M675.261780,260.517700 
	C674.381897,249.945953 673.654663,239.729202 672.906128,229.213654 
	C675.804199,229.213654 677.700928,229.213654 680.024841,229.213654 
	C680.024841,236.259949 679.912537,243.213242 680.082581,250.159607 
	C680.146606,252.774841 680.229492,255.740768 681.463013,257.877686 
	C682.702454,260.024933 685.301697,262.549805 687.456665,262.697449 
	C689.882874,262.863647 693.347717,261.175354 694.773132,259.166962 
	C696.432007,256.829559 696.830627,253.290314 696.960938,250.237839 
	C697.257080,243.298920 697.054260,236.338730 697.054260,229.203537 
	C699.386475,229.203537 701.287170,229.203537 703.113708,229.203537 
	C703.113708,238.215775 703.600708,247.032013 702.967102,255.766983 
	C702.412048,263.418884 697.371887,268.294037 690.666870,269.421417 
	C684.078735,270.529175 679.475220,267.948944 675.261780,260.517700 
z"/>
<path fill="#151515" opacity="1.000000" stroke="none" 
	d="
M1260.834106,250.370163 
	C1264.793457,256.237244 1265.086792,260.482849 1261.847534,265.031403 
	C1259.227783,268.709778 1253.378540,270.458313 1248.379639,269.057343 
	C1243.612915,267.721375 1240.757324,263.660004 1240.082031,256.923615 
	C1243.267090,256.458069 1246.256348,255.185196 1247.523926,260.209198 
	C1247.858643,261.535614 1251.209717,262.684601 1253.234253,262.790039 
	C1254.524536,262.857239 1256.953369,260.926270 1257.034058,259.763611 
	C1257.159302,257.961487 1256.180542,255.552048 1254.833740,254.297302 
	C1252.569336,252.187714 1249.631958,250.807983 1247.007324,249.076233 
	C1241.091919,245.173172 1238.815430,240.677734 1240.341431,236.000458 
	C1241.855835,231.359085 1246.596680,228.110657 1251.863281,228.105453 
	C1257.488159,228.099899 1261.909424,231.661438 1263.722168,237.723282 
	C1263.956299,238.506195 1263.939087,239.364258 1263.593262,240.637924 
	C1260.379272,241.218704 1257.760742,241.864578 1256.646118,237.755722 
	C1256.249268,236.292465 1252.793457,235.147293 1250.612427,234.890686 
	C1249.482422,234.757721 1247.015259,236.920547 1247.052246,237.979874 
	C1247.114014,239.749084 1248.293945,241.987473 1249.724854,243.099869 
	C1253.207397,245.807022 1257.104126,247.981277 1260.834106,250.370163 
z"/>
<path fill="#080808" opacity="1.000000" stroke="none" 
	d="
M929.952026,267.727600 
	C928.079041,268.560059 926.233215,268.914520 923.947571,269.353424 
	C923.947571,255.756683 923.947571,242.706390 923.947571,229.318817 
	C925.610046,229.318817 927.513306,229.318817 929.830688,229.318817 
	C929.830688,234.598648 929.830688,240.009338 929.830688,245.716675 
	C934.623840,245.716675 939.019104,245.716675 943.849121,245.716675 
	C943.849121,240.365646 943.849121,234.957275 943.849121,229.273972 
	C946.165405,229.273972 948.057129,229.273972 950.204468,229.273972 
	C950.204468,242.411224 950.204468,255.463791 950.204468,268.762085 
	C948.216064,268.762085 946.315674,268.762085 943.995850,268.762085 
	C943.995850,263.191620 943.995850,257.777954 943.995850,252.143509 
	C939.309021,252.143509 935.031799,252.143509 929.979248,252.143509 
	C929.979248,257.090668 929.979248,262.170135 929.952026,267.727600 
z"/>
<path fill="#0F0F0F" opacity="1.000000" stroke="none" 
	d="
M552.644287,245.972565 
	C558.040344,245.531082 555.876953,249.070786 556.380371,251.849335 
	C551.733948,251.849335 547.354126,251.849335 542.765747,251.849335 
	C542.765747,255.668137 542.765747,258.932404 542.765747,262.726868 
	C547.525879,262.726868 552.246948,262.726868 557.512939,262.726868 
	C557.630615,264.929077 557.721802,266.636566 557.831970,268.697693 
	C550.686340,268.697693 543.931152,268.697693 536.857605,268.697693 
	C536.857605,255.734711 536.857605,242.684448 536.857605,229.299240 
	C543.676514,229.299240 550.531738,229.299240 557.549805,229.299240 
	C557.549805,231.018631 557.549805,232.605301 557.549805,234.739471 
	C552.648560,234.739471 547.914856,234.739471 542.871826,234.739471 
	C542.871826,238.671829 542.871826,242.070847 542.871826,245.971237 
	C545.947266,245.971237 549.070862,245.971237 552.644287,245.972565 
z"/>
<path fill="#121212" opacity="1.000000" stroke="none" 
	d="
M1224.768799,231.919724 
	C1223.535156,233.212143 1222.349487,234.668472 1221.038208,234.792099 
	C1217.446167,235.130753 1213.801392,234.908783 1209.875977,234.908783 
	C1209.875977,238.692947 1209.875977,242.083572 1209.875977,245.854584 
	C1214.226440,245.854584 1218.498901,245.854584 1223.051880,245.854584 
	C1223.051880,247.988510 1223.051880,249.750351 1223.051880,251.918167 
	C1218.631592,251.918167 1214.380127,251.918167 1209.853638,251.918167 
	C1209.853638,255.702866 1209.853638,259.093719 1209.853638,262.906982 
	C1214.684692,262.906982 1219.446167,262.906982 1224.528809,262.906982 
	C1224.528809,265.029266 1224.528809,266.734985 1224.528809,268.731384 
	C1217.559570,268.731384 1210.809082,268.731384 1203.745117,268.731384 
	C1203.745117,255.669174 1203.745117,242.586853 1203.745117,228.978165 
	C1210.140991,228.978165 1216.402222,228.896927 1222.655029,229.088058 
	C1223.380127,229.110229 1224.059204,230.643143 1224.768799,231.919724 
z"/>
<path fill="#101010" opacity="1.000000" stroke="none" 
	d="
M720.543335,255.983200 
	C720.544250,246.848465 720.544250,238.211060 720.544250,229.270798 
	C727.581848,229.270798 734.319702,229.270798 741.417847,229.270798 
	C741.417847,230.874329 741.417847,232.568237 741.417847,234.819977 
	C736.546021,234.819977 731.808594,234.819977 726.824829,234.819977 
	C726.824829,238.633484 726.824829,241.902985 726.824829,245.770477 
	C731.142578,245.770477 735.511536,245.770477 740.092896,245.770477 
	C740.092896,248.122482 740.092896,249.879379 740.092896,252.025726 
	C735.598633,252.025726 731.330750,252.025726 726.811523,252.025726 
	C726.811523,255.666580 726.811523,258.926300 726.811523,262.722046 
	C731.538391,262.722046 736.266357,262.722046 741.474915,262.722046 
	C741.605896,264.940338 741.707214,266.657440 741.828369,268.709167 
	C734.679382,268.709167 727.914978,268.709167 720.542358,268.709167 
	C720.542358,264.688263 720.542358,260.584381 720.543335,255.983200 
z"/>
<path fill="#0C0C0C" opacity="1.000000" stroke="none" 
	d="
M887.046509,269.003418 
	C885.437561,269.007233 884.285889,269.007233 882.885376,269.007233 
	C882.885376,255.705627 882.885376,242.643051 882.885376,229.038498 
	C887.986450,229.038498 893.090088,228.689453 898.123413,229.134674 
	C903.369507,229.598740 907.893555,235.562439 907.689392,240.852753 
	C907.463379,246.712311 903.454285,251.145584 897.478210,251.798050 
	C894.875977,252.082138 892.216919,251.845779 889.006775,251.845779 
	C889.006775,256.485718 889.124573,260.759125 888.937744,265.019196 
	C888.878784,266.364380 888.004822,267.673828 887.046509,269.003418 
M893.288818,235.154785 
	C891.892822,235.253448 890.496765,235.352112 889.240723,235.440887 
	C889.240723,239.038361 889.240723,242.135391 889.240723,245.369110 
	C891.951477,245.369110 894.548828,245.871185 896.800903,245.205444 
	C898.509399,244.700409 900.739258,242.860352 900.980957,241.335876 
	C901.238403,239.711731 899.745239,237.458282 898.408264,236.061935 
	C897.574768,235.191422 895.614624,235.399612 893.288818,235.154785 
z"/>
<path fill="#0C0C0C" opacity="1.000000" stroke="none" 
	d="
M1055.427002,228.966766 
	C1059.547119,228.950424 1063.208862,228.864487 1066.865234,228.967560 
	C1073.419189,229.152313 1078.820190,233.920059 1078.693604,240.064621 
	C1078.564575,246.328568 1075.735474,250.987991 1067.794556,251.865616 
	C1065.370361,252.133530 1062.891357,251.907196 1060.047607,251.907196 
	C1060.047607,257.790070 1060.047607,263.211151 1060.047607,268.814331 
	C1057.887939,268.814331 1056.121826,268.814331 1053.600952,268.814331 
	C1053.600952,263.601715 1053.601318,258.375519 1053.600830,253.149292 
	C1053.600342,246.494720 1053.521973,239.838562 1053.660400,233.186890 
	C1053.689697,231.776932 1054.510132,230.383423 1055.427002,228.966766 
M1064.283081,245.594513 
	C1065.273315,245.526443 1066.513794,245.811584 1067.204956,245.321625 
	C1069.009033,244.042694 1072.086060,242.183380 1071.896729,240.994873 
	C1071.567627,238.928329 1069.509033,236.457977 1067.530273,235.524094 
	C1065.543457,234.586411 1062.768921,235.317917 1059.967896,235.317917 
	C1059.967896,237.912338 1060.157471,240.216629 1059.920410,242.476166 
	C1059.617920,245.360458 1061.095215,245.878342 1064.283081,245.594513 
z"/>
<path fill="#0C0C0C" opacity="1.000000" stroke="none" 
	d="
M1113.932373,250.790283 
	C1109.860718,251.349167 1105.789062,251.908051 1101.252075,252.530807 
	C1101.252075,257.577087 1101.252075,262.978241 1101.252075,268.694031 
	C1098.949341,268.694031 1097.061279,268.694031 1094.875488,268.694031 
	C1094.875488,255.600769 1094.875488,242.422089 1094.875488,228.940170 
	C1098.677246,228.940170 1102.316040,228.906616 1105.954102,228.946442 
	C1117.062256,229.067993 1121.667969,235.633987 1117.731689,246.742798 
	C1116.215576,248.430679 1115.073975,249.610474 1113.932373,250.790283 
M1107.048706,235.190750 
	C1105.142822,235.190750 1103.236938,235.190750 1101.160400,235.190750 
	C1101.160400,238.815292 1101.160400,241.883392 1101.160400,245.770798 
	C1105.366699,244.583298 1110.627319,247.802673 1112.880737,242.034531 
	C1114.408081,238.125107 1111.721436,235.951187 1107.048706,235.190750 
z"/>
<path fill="#0A0A0A" opacity="1.000000" stroke="none" 
	d="
M767.951050,268.959412 
	C766.010559,269.014374 764.527893,269.014374 762.657593,269.014374 
	C762.657593,257.670532 762.657593,246.597137 762.657593,235.329208 
	C760.538391,235.056564 758.774231,234.829590 756.643372,234.555450 
	C756.503540,232.965683 756.363586,231.373367 756.187378,229.369659 
	C762.441040,229.369659 768.483704,229.369659 774.810425,229.369659 
	C774.810425,230.976135 774.810425,232.679810 774.810425,234.700089 
	C772.918518,234.817139 771.167297,234.925476 768.993469,235.059967 
	C768.993469,244.699646 769.023193,254.142319 768.967102,263.584473 
	C768.956543,265.358856 768.603699,267.131165 767.951050,268.959412 
z"/>
<path fill="#050505" opacity="1.000000" stroke="none" 
	d="
M998.013184,237.055023 
	C998.014099,245.362595 998.012451,253.179367 998.024780,260.996155 
	C998.025269,261.320648 998.156616,261.644928 998.336548,262.473602 
	C1002.954651,262.473602 1007.694824,262.473602 1012.777039,262.473602 
	C1012.885376,264.733948 1012.970520,266.509949 1013.072998,268.648254 
	C1006.050232,268.648254 999.166687,268.648254 991.956909,268.648254 
	C991.956909,255.708832 991.956909,242.666733 991.956909,229.310577 
	C993.691772,229.310577 995.592285,229.310577 998.013184,229.310577 
	C998.013184,231.686340 998.013184,234.125290 998.013184,237.055023 
z"/>
<path fill="#0F0F0F" opacity="1.000000" stroke="none" 
	d="
M830.308594,255.913452 
	C821.553528,256.409241 818.382812,253.327591 818.995605,245.426331 
	C819.343384,240.943008 822.137146,238.188858 826.636536,237.893661 
	C831.777039,237.556396 834.468811,239.518829 835.360107,244.503113 
	C836.199951,249.199829 835.513245,253.372665 830.308594,255.913452 
z"/>
<path fill="#050505" opacity="1.000000" stroke="none" 
	d="
M967.650024,247.000336 
	C967.649963,240.869751 967.649963,235.238907 967.649963,229.303680 
	C969.705017,229.303680 971.601440,229.303680 973.764038,229.303680 
	C973.764038,242.290726 973.764038,255.323532 973.764038,268.681091 
	C971.949158,268.681091 970.072754,268.681091 967.650024,268.681091 
	C967.650024,261.637299 967.650024,254.568695 967.650024,247.000336 
z"/>
<path fill="#050505" opacity="1.000000" stroke="none" 
	d="
M1030.640381,239.013626 
	C1030.638550,235.540039 1030.638550,232.563461 1030.638550,229.291321 
	C1032.684326,229.291321 1034.585083,229.291321 1036.749512,229.291321 
	C1036.749512,242.302933 1036.749512,255.340546 1036.749512,268.690002 
	C1034.930542,268.690002 1033.047974,268.690002 1030.642334,268.690002 
	C1030.642334,258.963013 1030.642334,249.236832 1030.640381,239.013626 
z"/>
<path fill="#050505" opacity="1.000000" stroke="none" 
	d="
M1134.622803,245.001221 
	C1134.622803,239.531906 1134.622803,234.562149 1134.622803,229.293915 
	C1136.673950,229.293915 1138.575439,229.293915 1140.742188,229.293915 
	C1140.742188,242.292923 1140.742188,255.330429 1140.742188,268.684875 
	C1138.949707,268.684875 1137.070557,268.684875 1134.622681,268.684875 
	C1134.622681,260.967926 1134.622681,253.234344 1134.622803,245.001221 
z"/>
<path fill="#E9E9E9" opacity="1.000000" stroke="none" 
	d="
M1260.905518,250.007843 
	C1257.104126,247.981277 1253.207397,245.807022 1249.724854,243.099869 
	C1248.293945,241.987473 1247.114014,239.749084 1247.052246,237.979874 
	C1247.015259,236.920547 1249.482422,234.757721 1250.612427,234.890686 
	C1252.793457,235.147293 1256.249268,236.292465 1256.646118,237.755722 
	C1257.760742,241.864578 1260.379272,241.218704 1263.569702,241.033539 
	C1265.551514,244.759857 1262.278564,246.859879 1260.905518,250.007843 
z"/>
<path fill="#E3E3E3" opacity="1.000000" stroke="none" 
	d="
M277.050903,36.441582 
	C274.472534,35.742619 271.912231,34.710300 269.161072,33.394814 
	C269.942902,32.084198 270.915619,31.056747 272.597260,29.280502 
	C275.529846,29.413628 277.328369,31.465597 277.050903,36.441582 
z"/>
<path fill="#EEEEEE" opacity="1.000000" stroke="none" 
	d="
M517.192688,266.007019 
	C517.597290,264.721130 518.313843,263.493164 519.263794,262.069244 
	C520.654297,262.830444 522.813232,263.858459 522.751587,264.729340 
	C522.637756,266.337830 521.222168,267.854248 520.079956,269.887848 
	C518.757629,267.924927 518.131104,266.994965 517.192688,266.007019 
z"/>
<path fill="#E9E9E9" opacity="1.000000" stroke="none" 
	d="
M1114.087402,251.096863 
	C1115.073975,249.610474 1116.215576,248.430679 1117.642822,247.117432 
	C1119.031250,248.558838 1120.133911,250.133698 1121.236450,251.708572 
	C1120.910278,252.255524 1120.584106,252.802475 1120.257935,253.349426 
	C1118.252808,252.700775 1116.247681,252.052109 1114.087402,251.096863 
z"/>
<path fill="#E3E3E3" opacity="1.000000" stroke="none" 
	d="
M292.986115,44.595985 
	C289.670258,43.223957 286.313538,41.516773 282.790161,39.497162 
	C284.119446,39.129623 285.615356,39.074505 287.555664,39.009712 
	C288.000000,39.000034 287.987396,38.990410 287.987396,38.990410 
	C289.640015,40.747215 291.292633,42.504021 292.986115,44.595985 
z"/>
<path fill="#E3E3E3" opacity="1.000000" stroke="none" 
	d="
M267.004456,32.217335 
	C265.156097,31.954517 263.254700,31.363342 261.141357,30.516151 
	C262.936768,30.803085 264.944092,31.346031 267.004456,32.217335 
z"/>
<path fill="#E3E3E3" opacity="1.000000" stroke="none" 
	d="
M280.837036,38.142929 
	C279.907501,38.231792 279.062683,37.945179 278.041931,37.368744 
	C278.546661,35.866837 279.227295,34.654743 279.907928,33.442654 
	C280.245880,33.446648 280.583832,33.450638 280.921783,33.454632 
	C280.921783,34.892239 280.921783,36.329845 280.837036,38.142929 
z"/>
<path fill="#121212" opacity="1.000000" stroke="none" 
	d="
M1221.760986,162.235062 
	C1220.558960,161.462418 1219.337524,160.657455 1218.057007,159.469360 
	C1218.917114,159.487686 1219.836304,159.889145 1221.039062,160.944366 
	C1221.474365,161.820770 1221.626465,162.043427 1221.778442,162.266083 
	C1221.778442,162.266083 1221.741821,162.202728 1221.760986,162.235062 
z"/>
<path fill="#E3E3E3" opacity="1.000000" stroke="none" 
	d="
M297.931183,47.687969 
	C297.023590,47.586941 296.066223,47.129200 294.989349,46.366676 
	C295.873688,46.485008 296.877563,46.908134 297.931183,47.687969 
z"/>
<path fill="#151515" opacity="1.000000" stroke="none" 
	d="
M652.593445,236.908936 
	C652.091797,236.665054 651.593567,236.185471 651.051514,235.342010 
	C651.537415,235.543167 652.067139,236.108200 652.593445,236.908936 
z"/>
<path fill="#151515" opacity="1.000000" stroke="none" 
	d="
M624.128662,244.771881 
	C624.027588,244.346848 624.106262,243.710129 624.454956,243.033173 
	C624.586060,243.515381 624.447205,244.037796 624.128662,244.771881 
z"/>
<path fill="#E3E3E3" opacity="1.000000" stroke="none" 
	d="
M305.855469,52.814014 
	C305.126709,52.848682 304.353760,52.483025 303.401367,51.841278 
	C304.085052,51.848022 304.948181,52.130859 305.855469,52.814014 
z"/>
<path fill="#151515" opacity="1.000000" stroke="none" 
	d="
M640.226562,235.015961 
	C640.200562,234.507599 640.402954,234.112564 640.605347,233.717529 
	C640.721375,234.009369 640.837402,234.301208 640.958618,234.844940 
	C640.794312,235.107620 640.624634,235.118439 640.226562,235.015961 
z"/>
<path fill="#EEEEEE" opacity="1.000000" stroke="none" 
	d="
M522.469604,257.451599 
	C522.522949,257.419586 522.416199,257.483643 522.469604,257.451599 
z"/>
<path fill="#0D0D0D" opacity="1.000000" stroke="none" 
	d="
M1221.921631,162.033905 
	C1221.626465,162.043427 1221.474365,161.820770 1221.190674,161.215790 
	C1221.394165,161.156204 1221.729492,161.478958 1221.921631,162.033905 
z"/>
<path fill="#E3E3E3" opacity="1.000000" stroke="none" 
	d="
M288.004791,39.006275 
	C288.095306,38.971992 288.181000,38.931465 288.127075,38.940674 
	C287.987396,38.990410 288.000000,39.000034 288.004791,39.006275 
z"/>
<path fill="#FEFEFE" opacity="1.000000" stroke="none" 
	d="
M302.165436,70.920998 
	C302.756897,71.314285 303.348358,71.707581 303.989014,72.709869 
	C303.184174,74.292686 302.330109,75.266487 301.628143,76.066887 
	C303.736084,77.000732 305.532135,77.959244 307.436737,78.589729 
	C309.019440,79.113647 310.729889,79.251770 312.383728,79.560791 
	C312.383728,79.560791 312.258453,79.764900 312.254883,80.079697 
	C313.387787,81.138565 314.524292,81.882637 315.660797,82.626709 
	C316.605042,83.472748 317.549286,84.318787 318.280548,85.592316 
	C318.841095,86.545349 319.614624,87.070900 320.388153,87.596458 
	C320.388153,87.596458 320.052582,87.872681 320.111969,88.139206 
	C321.168518,89.229225 322.165649,90.052719 323.162781,90.876221 
	C323.162781,90.876221 323.025360,90.933304 323.027405,91.328094 
	C323.064423,99.625008 323.993927,100.671310 331.189941,100.908638 
	C336.141296,108.924110 341.789825,116.598122 345.914032,125.018707 
	C358.568878,150.856720 366.571869,177.986801 365.965271,207.108459 
	C364.886414,258.900360 345.682831,301.565216 304.522980,334.474060 
	C279.096802,354.803284 250.515991,365.714294 218.951797,370.450989 
	C216.188049,370.865723 213.361954,370.865051 210.168030,371.084595 
	C210.168030,260.203705 210.168030,149.690445 210.168030,38.824192 
	C242.732697,39.520058 272.421753,48.845547 299.017853,68.793541 
	C300.164124,69.960518 301.164795,70.440758 302.165436,70.920998 
M308.493500,82.689659 
	C309.026978,83.019096 309.560486,83.348534 310.093964,83.677971 
	C310.226135,83.412155 310.358307,83.146339 310.490479,82.880524 
	C309.967834,82.680405 309.445160,82.480286 308.493500,82.689659 
z"/>
<path fill="#FBFBFB" opacity="1.000000" stroke="none" 
	d="
M108.552406,344.201355 
	C107.140251,343.341400 105.728104,342.481415 104.093445,340.985901 
	C103.056473,339.989502 102.242020,339.628601 101.427559,339.267700 
	C85.170502,328.156128 71.965218,314.054565 61.080822,297.746460 
	C20.296839,236.639771 25.095407,152.432571 72.401184,98.094627 
	C73.165848,97.216309 73.950874,96.355721 75.335541,95.291199 
	C77.097549,95.887375 78.250420,96.679222 80.034142,97.904350 
	C80.034142,94.857430 80.034142,92.458702 80.034142,90.059975 
	C80.034142,90.059975 79.997292,90.007866 80.388687,90.026085 
	C82.915619,89.634674 85.051163,89.225044 87.283699,88.796806 
	C87.461464,87.862587 87.734833,86.425865 88.059708,85.124672 
	C88.191536,85.310699 88.271866,85.361198 88.352203,85.411690 
	C88.231163,85.277229 88.110130,85.142769 87.765015,84.545547 
	C87.330658,83.812096 87.120384,83.541397 86.910103,83.270706 
	C86.910103,83.270706 87.072693,82.887192 87.642525,82.861786 
	C89.091713,81.828209 89.971077,80.820045 90.850433,79.811874 
	C90.850433,79.811874 90.941345,79.956718 91.215317,79.930023 
	C92.001335,79.289894 92.513382,78.676468 93.025429,78.063042 
	C93.212677,77.766090 93.399933,77.469147 94.223557,77.112198 
	C95.562172,76.298294 96.264420,75.544388 96.966675,74.790482 
	C97.035538,74.435524 97.237915,74.191116 98.183357,74.042694 
	C99.516571,73.279388 100.240242,72.530647 100.963905,71.781898 
	C119.516617,57.369907 140.464569,48.048695 163.312668,43.074909 
	C171.829269,41.220928 180.571854,40.404991 189.636047,39.052345 
	C189.636047,52.896702 189.636047,65.653709 189.636047,78.847916 
	C185.570724,79.540245 181.517197,80.216873 177.468674,80.922096 
	C127.650887,89.600060 86.175095,128.434540 76.021759,178.251770 
	C64.503983,234.763596 90.246506,299.044434 154.784637,322.776703 
	C164.548370,326.367035 174.882843,328.504089 185.071320,330.786621 
	C188.592163,331.575409 190.132339,332.357025 190.025711,336.338318 
	C189.723602,347.617371 189.919891,358.909760 189.919891,370.619568 
	C161.307297,370.207611 135.938965,361.353699 112.045151,346.217224 
	C110.729439,345.107880 109.640930,344.654602 108.552406,344.201355 
M104.821045,75.649246 
	C105.476608,75.242500 106.132172,74.835747 106.787743,74.429001 
	C106.387840,74.022400 105.987938,73.615799 105.588036,73.209198 
	C105.172493,73.857697 104.756950,74.506195 104.821045,75.649246 
M109.592178,341.518097 
	C109.592178,341.518097 109.474297,341.586304 109.592178,341.518097 
z"/>
<path fill="#FBFBFB" opacity="1.000000" stroke="none" 
	d="
M134.548523,291.204803 
	C133.406815,290.382141 132.265106,289.559479 131.027130,288.088013 
	C130.208572,286.978668 129.486252,286.518097 128.763947,286.057526 
	C128.763947,286.057526 128.570145,285.983551 128.630661,285.493988 
	C127.705246,284.417999 126.719307,283.831573 125.733376,283.245148 
	C125.733376,283.245148 125.966019,283.039032 125.926086,282.781708 
	C125.409988,279.187653 125.225670,279.046936 122.907074,280.250061 
	C99.265747,254.738449 88.437462,224.950058 92.961685,190.103088 
	C98.744812,145.559631 135.088913,107.482872 179.226440,99.687485 
	C182.628174,99.086678 186.091568,98.835091 189.840302,98.383339 
	C189.840302,111.798782 189.840302,124.735092 189.840302,137.877136 
	C177.790482,140.338577 166.716919,144.876999 157.026215,152.619797 
	C121.905792,180.680771 122.493324,238.995590 164.727356,262.284454 
	C171.661362,266.108032 179.286530,268.662903 186.470245,272.062012 
	C187.904083,272.740479 189.736862,274.573883 189.766052,275.910095 
	C190.023804,287.708374 189.915604,299.514618 189.915604,311.908356 
	C169.747131,312.632721 152.768784,305.401825 137.096069,293.003235 
	C136.100281,291.969971 135.324402,291.587372 134.548523,291.204803 
z"/>
<path fill="#FBFBFB" opacity="1.000000" stroke="none" 
	d="
M190.072037,181.000031 
	C190.072037,205.251877 190.072037,229.003723 190.072037,252.797684 
	C168.637360,250.977036 150.319992,228.454514 150.666168,204.968674 
	C151.016968,181.170212 169.283966,159.257385 190.072037,158.062729 
	C190.072037,165.551590 190.072037,173.025803 190.072037,181.000031 
z"/>
<path fill="#E3E3E3" opacity="1.000000" stroke="none" 
	d="
M331.123901,100.565598 
	C323.993927,100.671310 323.064423,99.625008 323.081909,91.277451 
	C325.775513,93.962196 328.416687,97.092377 331.123901,100.565598 
z"/>
<path fill="#E3E3E3" opacity="1.000000" stroke="none" 
	d="
M312.245117,79.263000 
	C310.729889,79.251770 309.019440,79.113647 307.436737,78.589729 
	C305.532135,77.959244 303.736084,77.000732 301.628143,76.066887 
	C302.330109,75.266487 303.184174,74.292686 304.119446,72.948425 
	C306.835968,74.707062 309.471252,76.836143 312.245117,79.263000 
z"/>
<path fill="#E3E3E3" opacity="1.000000" stroke="none" 
	d="
M86.627396,83.391800 
	C87.120384,83.541397 87.330658,83.812096 87.770439,84.541397 
	C87.999939,85.000000 88.008209,84.989143 88.008209,84.989143 
	C87.734833,86.425865 87.461464,87.862587 87.283699,88.796806 
	C85.051163,89.225044 82.915619,89.634674 80.418274,90.038025 
	C82.152534,87.858795 84.248604,85.685852 86.627396,83.391800 
z"/>
<path fill="#E3E3E3" opacity="1.000000" stroke="none" 
	d="
M79.740265,90.191902 
	C80.034142,92.458702 80.034142,94.857430 80.034142,97.904350 
	C78.250420,96.679222 77.097549,95.887375 75.592819,95.065521 
	C76.642784,93.464951 78.044586,91.894394 79.740265,90.191902 
z"/>
<path fill="#E3E3E3" opacity="1.000000" stroke="none" 
	d="
M122.969070,280.553345 
	C125.225670,279.046936 125.409988,279.187653 125.821259,282.896423 
	C124.847923,282.464539 123.939491,281.660614 122.969070,280.553345 
z"/>
<path fill="#E3E3E3" opacity="1.000000" stroke="none" 
	d="
M323.124146,90.560562 
	C322.165649,90.052719 321.168518,89.229225 320.290619,88.015495 
	C321.301758,88.498466 322.193634,89.371681 323.124146,90.560562 
z"/>
<path fill="#E3E3E3" opacity="1.000000" stroke="none" 
	d="
M315.526367,82.329483 
	C314.524292,81.882637 313.387787,81.138565 312.343750,79.999451 
	C313.421448,80.413704 314.406677,81.222984 315.526367,82.329483 
z"/>
<path fill="#E3E3E3" opacity="1.000000" stroke="none" 
	d="
M90.534836,79.893555 
	C89.971077,80.820045 89.091713,81.828209 87.827934,82.766891 
	C88.368752,81.790009 89.293999,80.882614 90.534836,79.893555 
z"/>
<path fill="#E3E3E3" opacity="1.000000" stroke="none" 
	d="
M125.827827,283.553711 
	C126.719307,283.831573 127.705246,284.417999 128.568848,285.410706 
	C127.605103,285.165405 126.763687,284.513855 125.827827,283.553711 
z"/>
<path fill="#E3E3E3" opacity="1.000000" stroke="none" 
	d="
M108.706207,344.504517 
	C109.640930,344.654602 110.729439,345.107880 111.826096,345.962952 
	C110.842819,345.845734 109.851410,345.326721 108.706207,344.504517 
z"/>
<path fill="#E3E3E3" opacity="1.000000" stroke="none" 
	d="
M320.361084,87.335716 
	C319.614624,87.070900 318.841095,86.545349 318.409912,85.887154 
	C319.279541,86.194664 319.806763,86.634819 320.361084,87.335716 
z"/>
<path fill="#E9E9E9" opacity="1.000000" stroke="none" 
	d="
M96.656281,74.843430 
	C96.264420,75.544388 95.562172,76.298294 94.501328,77.052330 
	C94.877121,76.333763 95.611496,75.615059 96.656281,74.843430 
z"/>
<path fill="#E9E9E9" opacity="1.000000" stroke="none" 
	d="
M100.649139,71.842453 
	C100.240242,72.530647 99.516571,73.279388 98.428642,74.018074 
	C98.821045,73.306343 99.577705,72.604668 100.649139,71.842453 
z"/>
<path fill="#E3E3E3" opacity="1.000000" stroke="none" 
	d="
M302.038696,70.620605 
	C301.164795,70.440758 300.164124,69.960518 299.147583,69.103676 
	C300.058441,69.258125 300.985168,69.789169 302.038696,70.620605 
z"/>
<path fill="#E3E3E3" opacity="1.000000" stroke="none" 
	d="
M101.572945,339.564972 
	C102.242020,339.628601 103.056473,339.989502 103.913490,340.726044 
	C103.210144,340.688538 102.464233,340.275391 101.572945,339.564972 
z"/>
<path fill="#E3E3E3" opacity="1.000000" stroke="none" 
	d="
M134.688538,291.496002 
	C135.324402,291.587372 136.100281,291.969971 136.920471,292.717041 
	C136.252716,292.650085 135.540634,292.218628 134.688538,291.496002 
z"/>
<path fill="#E3E3E3" opacity="1.000000" stroke="none" 
	d="
M128.843262,286.364929 
	C129.486252,286.518097 130.208572,286.978668 130.929214,287.799500 
	C130.259216,287.663940 129.590897,287.168121 128.843262,286.364929 
z"/>
<path fill="#E3E3E3" opacity="1.000000" stroke="none" 
	d="
M92.726746,78.115921 
	C92.513382,78.676468 92.001335,79.289894 91.149986,79.874855 
	C91.349808,79.287193 91.888931,78.727997 92.726746,78.115921 
z"/>
<path fill="#FBFBFB" opacity="1.000000" stroke="none" 
	d="
M489.905640,169.264679 
	C480.538818,169.845444 471.585632,170.338394 462.119415,170.859604 
	C462.119415,151.438110 462.119415,132.594498 462.119415,114.080818 
	C470.424469,114.080818 478.612518,113.386612 486.632355,114.251816 
	C497.305206,115.403229 505.621155,123.807472 506.938721,134.565811 
	C507.690033,140.700439 507.534363,147.200333 506.353455,153.256195 
	C504.696625,161.752823 498.905182,167.128204 489.905640,169.264679 
z"/>
<path fill="#FAFAFA" opacity="1.000000" stroke="none" 
	d="
M685.615967,153.303040 
	C678.067688,172.269821 656.090149,177.828857 641.871582,164.620041 
	C632.525574,155.937805 629.764282,144.877243 633.557007,132.780212 
	C637.252991,120.991699 645.422119,113.863289 658.048157,112.474007 
	C671.065613,111.041664 684.884460,121.605515 686.704163,135.320557 
	C687.464233,141.049591 686.137939,147.055435 685.615967,153.303040 
z"/>
<path fill="#F6F6F6" opacity="1.000000" stroke="none" 
	d="
M1100.316406,134.663116 
	C1093.133789,135.543655 1086.315674,136.242767 1079.039307,136.988861 
	C1079.039307,128.630356 1079.039307,121.282555 1079.039307,113.157974 
	C1085.207031,113.449913 1091.177246,113.312965 1097.012207,114.135574 
	C1102.085327,114.850754 1105.003784,118.781441 1105.795532,123.621140 
	C1106.530151,128.111374 1105.180664,132.180008 1100.316406,134.663116 
z"/>
<path fill="#121212" opacity="1.000000" stroke="none" 
	d="
M1215.465332,162.450363 
	C1215.521362,162.416901 1215.409424,162.483826 1215.465332,162.450363 
z"/>
<path fill="#EEEEEE" opacity="1.000000" stroke="none" 
	d="
M501.387421,252.403946 
	C503.846069,252.012787 505.991150,251.902496 508.134033,251.935226 
	C511.481995,251.986313 513.503296,253.947678 513.707031,257.068451 
	C513.920654,260.341614 511.815582,262.265228 508.562134,262.537079 
	C506.287659,262.727112 503.984528,262.573700 501.072845,262.573700 
	C501.072845,259.208679 501.072845,255.978806 501.387421,252.403946 
z"/>
<path fill="#E9E9E9" opacity="1.000000" stroke="none" 
	d="
M511.320862,236.681198 
	C514.539062,242.058136 513.277283,244.867554 507.719147,245.410233 
	C505.619049,245.615280 503.482117,245.443527 501.168762,245.443527 
	C501.168762,241.965363 501.168762,238.874924 501.168762,234.842773 
	C504.649567,235.415802 507.811859,235.936386 511.320862,236.681198 
z"/>
<path fill="#151515" opacity="1.000000" stroke="none" 
	d="
M626.457336,258.736694 
	C626.316650,258.959839 626.116333,259.156433 625.915955,259.353027 
	C625.933716,259.159973 625.951416,258.966919 626.172913,258.677612 
	C626.376709,258.581299 626.397705,258.710114 626.457336,258.736694 
z"/>
<path fill="#EEEEEE" opacity="1.000000" stroke="none" 
	d="
M893.724487,235.139252 
	C895.614624,235.399612 897.574768,235.191422 898.408264,236.061935 
	C899.745239,237.458282 901.238403,239.711731 900.980957,241.335876 
	C900.739258,242.860352 898.509399,244.700409 896.800903,245.205444 
	C894.548828,245.871185 891.951477,245.369110 889.240723,245.369110 
	C889.240723,242.135391 889.240723,239.038361 889.240723,235.440887 
	C890.496765,235.352112 891.892822,235.253448 893.724487,235.139252 
z"/>
<path fill="#EEEEEE" opacity="1.000000" stroke="none" 
	d="
M1063.855713,245.615204 
	C1061.095215,245.878342 1059.617920,245.360458 1059.920410,242.476166 
	C1060.157471,240.216629 1059.967896,237.912338 1059.967896,235.317917 
	C1062.768921,235.317917 1065.543457,234.586411 1067.530273,235.524094 
	C1069.509033,236.457977 1071.567627,238.928329 1071.896729,240.994873 
	C1072.086060,242.183380 1069.009033,244.042694 1067.204956,245.321625 
	C1066.513794,245.811584 1065.273315,245.526443 1063.855713,245.615204 
z"/>
<path fill="#EEEEEE" opacity="1.000000" stroke="none" 
	d="
M1107.474365,235.227356 
	C1111.721436,235.951187 1114.408081,238.125107 1112.880737,242.034531 
	C1110.627319,247.802673 1105.366699,244.583298 1101.160400,245.770798 
	C1101.160400,241.883392 1101.160400,238.815292 1101.160400,235.190750 
	C1103.236938,235.190750 1105.142822,235.190750 1107.474365,235.227356 
z"/>
<path fill="#E3E3E3" opacity="1.000000" stroke="none" 
	d="
M308.708008,82.484909 
	C309.445160,82.480286 309.967834,82.680405 310.490479,82.880524 
	C310.358307,83.146339 310.226135,83.412155 310.093964,83.677971 
	C309.560486,83.348534 309.026978,83.019096 308.708008,82.484909 
z"/>
<path fill="#E9E9E9" opacity="1.000000" stroke="none" 
	d="
M104.581223,75.401970 
	C104.756950,74.506195 105.172493,73.857697 105.588036,73.209198 
	C105.987938,73.615799 106.387840,74.022400 106.787743,74.429001 
	C106.132172,74.835747 105.476608,75.242500 104.581223,75.401970 
z"/>
<path fill="#E3E3E3" opacity="1.000000" stroke="none" 
	d="
M87.994522,85.004150 
	C88.110130,85.142769 88.231163,85.277229 88.352203,85.411690 
	C88.271866,85.361198 88.191536,85.310699 88.059708,85.124672 
	C88.008209,84.989143 87.999939,85.000000 87.994522,85.004150 
z"/>
<path fill="#E3E3E3" opacity="1.000000" stroke="none" 
	d="
M109.533234,341.552185 
	C109.474297,341.586304 109.592178,341.518097 109.533234,341.552185 
z"/>
</svg>