<?xml version="1.0" encoding="UTF-8"?>
<svg version="1.1" xmlns="http://www.w3.org/2000/svg" width="666" height="375">
<path d="M0 0 C0.495 1.485 0.495 1.485 1 3 C2.423125 2.9690625 2.423125 2.9690625 3.875 2.9375 C7 3 7 3 9 4 C9 4.66 9 5.32 9 6 C9.763125 6.144375 10.52625 6.28875 11.3125 6.4375 C14 7 14 7 17 8 C17 8.99 17 9.98 17 11 C17.99 11 18.98 11 20 11 C20 11.66 20 12.32 20 13 C20.5775 13.0825 21.155 13.165 21.75 13.25 C24.6539336 14.21797787 26.03740604 15.68694284 28 18 C28 18.66 28 19.32 28 20 C28.66 20 29.32 20 30 20 C30.495 22.475 30.495 22.475 31 25 C31.99 25 32.98 25 34 25 C34 25.99 34 26.98 34 28 C34.66 28 35.32 28 36 28 C36.67408308 29.26691507 37.33900497 30.53870749 38 31.8125 C38.37125 32.52019531 38.7425 33.22789062 39.125 33.95703125 C40 36 40 36 40 39 C40.66 39 41.32 39 42 39 C42 41.64 42 44.28 42 47 C42.66 47 43.32 47 44 47 C45.0485577 50.43983153 45.12910559 53.6055 45.1328125 57.19140625 C45.13410156 58.38314453 45.13539063 59.57488281 45.13671875 60.80273438 C45.13285156 62.04345703 45.12898437 63.28417969 45.125 64.5625 C45.12886719 65.80708984 45.13273438 67.05167969 45.13671875 68.33398438 C45.13478516 70.1196582 45.13478516 70.1196582 45.1328125 71.94140625 C45.13168457 73.03138916 45.13055664 74.12137207 45.12939453 75.24438477 C45 78 45 78 44 81 C43.34 81 42.68 81 42 81 C41.814375 82.794375 41.814375 82.794375 41.625 84.625 C41.17674946 88.27596813 40.29553163 91.54524899 39 95 C38.34 95 37.68 95 37 95 C37 96.98 37 98.96 37 101 C36.01 101 35.02 101 34 101 C34 101.66 34 102.32 34 103 C33.01 103.495 33.01 103.495 32 104 C30.86649466 106.01669827 30.86649466 106.01669827 30 108 C29.34 108 28.68 108 28 108 C28 108.66 28 109.32 28 110 C25.47107279 112.73397536 23.10404867 114.93063422 20 117 C19.01 117 18.02 117 17 117 C16.505 118.485 16.505 118.485 16 120 C10.99435168 123.26168421 5.92101212 125.24089588 0 126 C-0.33 126.66 -0.66 127.32 -1 128 C-18.49836045 133.37273602 -36.2648147 131.23822463 -52.4609375 122.703125 C-56.37699305 120.36723222 -56.37699305 120.36723222 -58 119 C-58 118.34 -58 117.68 -58 117 C-58.99 117 -59.98 117 -61 117 C-61 116.34 -61 115.68 -61 115 C-61.99 115 -62.98 115 -64 115 C-64 114.34 -64 113.68 -64 113 C-64.61875 112.71125 -65.2375 112.4225 -65.875 112.125 C-68 111 -68 111 -70 109 C-70 108.01 -70 107.02 -70 106 C-70.66 106 -71.32 106 -72 106 C-78.54319945 98.70129711 -83.75183813 89.77207158 -83.83203125 79.828125 C-83.88746094 79.22484375 -83.94289063 78.6215625 -84 78 C-84.66 77.67 -85.32 77.34 -86 77 C-86.0580772 72.91672643 -86.09362249 68.83355917 -86.125 64.75 C-86.14175781 63.59113281 -86.15851563 62.43226563 -86.17578125 61.23828125 C-86.18222656 60.12324219 -86.18867187 59.00820312 -86.1953125 57.859375 C-86.20578613 56.83295898 -86.21625977 55.80654297 -86.22705078 54.74902344 C-85.99576854 51.94876746 -85.3881078 50.40218845 -84 48 C-83.62175546 46.53167571 -83.28892473 45.0509783 -83 43.5625 C-82.29194994 40.20479386 -81.54529265 37.0905853 -80 34 C-79.01 33.505 -79.01 33.505 -78 33 C-77.34786708 30.97536745 -77.34786708 30.97536745 -77 29 C-76.34 29 -75.68 29 -75 29 C-74.67 27.68 -74.34 26.36 -74 25 C-73.34 25 -72.68 25 -72 25 C-72 24.01 -72 23.02 -72 22 C-71.34 22 -70.68 22 -70 22 C-69.67 21.01 -69.34 20.02 -69 19 C-68.34 19 -67.68 19 -67 19 C-67 18.34 -67 17.68 -67 17 C-65.34997172 15.64613064 -63.6825613 14.31321858 -62 13 C-61.67 12.34 -61.34 11.68 -61 11 C-60.01 11 -59.02 11 -58 11 C-57.67 10.01 -57.34 9.02 -57 8 C-55.68 8 -54.36 8 -53 8 C-53 7.34 -53 6.68 -53 6 C-51.02 5.67 -49.04 5.34 -47 5 C-47 4.34 -47 3.68 -47 3 C-45.35 3 -43.7 3 -42 3 C-42 2.34 -42 1.68 -42 1 C-27.52065536 -2.69685395 -14.67361552 -2.49763668 0 0 Z M-16 9 C-16 45.96 -16 82.92 -16 121 C-11.82078682 120.30346447 -7.79488125 119.54970371 -3.6875 118.5625 C-2.63949219 118.31628906 -1.59148437 118.07007813 -0.51171875 117.81640625 C0.31714844 117.54699219 1.14601563 117.27757812 2 117 C2.33 116.34 2.66 115.68 3 115 C4.97888961 114.27306096 6.97954558 113.60183749 9 113 C9 112.34 9 111.68 9 111 C10.485 110.505 10.485 110.505 12 110 C12 109.34 12 108.68 12 108 C13.98 107.505 13.98 107.505 16 107 C16 106.34 16 105.68 16 105 C16.99 105 17.98 105 19 105 C19 104.34 19 103.68 19 103 C19.99 103 20.98 103 22 103 C22.39832031 102.15115234 22.39832031 102.15115234 22.8046875 101.28515625 C23.15789062 100.55167969 23.51109375 99.81820312 23.875 99.0625 C24.22304687 98.33160156 24.57109375 97.60070312 24.9296875 96.84765625 C26 95 26 95 28 94 C28 93.01 28 92.02 28 91 C28.66 91 29.32 91 30 91 C30.33 88.69 30.66 86.38 31 84 C31.66 84 32.32 84 33 84 C33.33 81.03 33.66 78.06 34 75 C34.66 75 35.32 75 36 75 C36 68.73 36 62.46 36 56 C35.34 56 34.68 56 34 56 C34.020625 54.9275 34.04125 53.855 34.0625 52.75 C34.01907613 48.76354943 34.01907613 48.76354943 33 45 C32.01 44.505 32.01 44.505 31 44 C30.375 41.4375 30.375 41.4375 30 39 C29.34 39 28.68 39 28 39 C28.103125 38.113125 28.20625 37.22625 28.3125 36.3125 C27.90245176 31.96598868 26.165851 30.85698749 23 28 C22.505 26.515 22.505 26.515 22 25 C21.34 25 20.68 25 20 25 C20 24.34 20 23.68 20 23 C19.01 23 18.02 23 17 23 C16.814375 22.443125 16.62875 21.88625 16.4375 21.3125 C13.42375749 16.46430553 8.25273868 13.8855985 3 12 C2.113125 11.484375 1.22625 10.96875 0.3125 10.4375 C-4.87343416 8.18700027 -10.56813629 7.18937876 -16 9 Z M-37.875 10 C-39.60363281 10.556875 -39.60363281 10.556875 -41.3671875 11.125 C-42.67042969 11.558125 -42.67042969 11.558125 -44 12 C-44 12.66 -44 13.32 -44 14 C-44.99 14 -45.98 14 -47 14 C-47.33 14.66 -47.66 15.32 -48 16 C-50.0625 17.125 -50.0625 17.125 -52 18 C-52 18.66 -52 19.32 -52 20 C-53.32 20.33 -54.64 20.66 -56 21 C-56 21.66 -56 22.32 -56 23 C-56.66 23 -57.32 23 -58 23 C-58 23.66 -58 24.32 -58 25 C-58.99 25 -59.98 25 -61 25 C-61 25.99 -61 26.98 -61 28 C-61.99 28.33 -62.98 28.66 -64 29 C-64 29.66 -64 30.32 -64 31 C-64.66 31 -65.32 31 -66 31 C-66 31.99 -66 32.98 -66 34 C-66.99 34 -67.98 34 -69 34 C-69 35.65 -69 37.3 -69 39 C-69.66 39 -70.32 39 -71 39 C-71.33 40.98 -71.66 42.96 -72 45 C-72.66 45 -73.32 45 -74 45 C-74.93380961 49.53140653 -74.93380961 49.53140653 -74 54 C-74.66 54 -75.32 54 -76 54 C-76.79818992 71.00116659 -76.79818992 71.00116659 -72 87 C-70.66666667 89.66666667 -69.33333333 92.33333333 -68 95 C-67.34 95 -66.68 95 -66 95 C-66 95.66 -66 96.32 -66 97 C-65.34 97 -64.68 97 -64 97 C-63.67 97.99 -63.34 98.98 -63 100 C-62.01 100 -61.02 100 -60 100 C-60.33 100.99 -60.66 101.98 -61 103 C-60.195625 103.45375 -59.39125 103.9075 -58.5625 104.375 C-56 106 -56 106 -55 108 C-54.34 108 -53.68 108 -53 108 C-52.67 108.99 -52.34 109.98 -52 111 C-49.07920195 113.07530387 -47.62453269 114 -44 114 C-44 114.99 -44 115.98 -44 117 C-41.772924 117.49975779 -39.54525296 117.99647 -37.31640625 118.48828125 C-35.62636663 118.86162896 -33.93774693 119.24142115 -32.25 119.625 C-29.55817772 120.13699916 -29.55817772 120.13699916 -25 120 C-25 116.37 -25 112.74 -25 109 C-28.63 108.67 -32.26 108.34 -36 108 C-36 107.34 -36 106.68 -36 106 C-37.26839526 105.49384702 -38.53983102 104.99530901 -39.8125 104.5 C-40.52019531 104.2215625 -41.22789063 103.943125 -41.95703125 103.65625 C-44.11841216 102.8470838 -44.11841216 102.8470838 -47 103 C-47 102.34 -47 101.68 -47 101 C-48.27056525 99.31267956 -48.27056525 99.31267956 -50 98 C-50.99 98 -51.98 98 -53 98 C-53 97.01 -53 96.02 -53 95 C-54.31267956 93.27056525 -54.31267956 93.27056525 -56 92 C-56.66 92 -57.32 92 -58 92 C-58 91.01 -58 90.02 -58 89 C-58.66 89 -59.32 89 -60 89 C-61.92471317 83.66164461 -63.39891424 78.65020618 -64 73 C-64.66 73 -65.32 73 -66 73 C-65.67 72.01 -65.34 71.02 -65 70 C-64.93136338 68.35546651 -64.91522582 66.70831446 -64.9375 65.0625 C-64.94652344 64.20785156 -64.95554687 63.35320312 -64.96484375 62.47265625 C-64.97644531 61.65667969 -64.98804688 60.84070313 -65 60 C-65 56.13154158 -64.5405407 54.45051495 -63.0625 51 C-61.55139691 47.44911033 -61.55139691 47.44911033 -60.49609375 43.75 C-60.33238281 43.1725 -60.16867188 42.595 -60 42 C-59.01 41.505 -59.01 41.505 -58 41 C-58 39.68 -58 38.36 -58 37 C-57.01 36.67 -56.02 36.34 -55 36 C-55 35.34 -55 34.68 -55 34 C-54.34 33.67 -53.68 33.34 -53 33 C-53 32.34 -53 31.68 -53 31 C-52.01 31 -51.02 31 -50 31 C-48.64499081 29.68870078 -47.31328657 28.35308313 -46 27 C-44.68252676 26.30251417 -43.35085807 25.63040043 -42 25 C-41.34 24.34 -40.68 23.68 -40 23 C-37.375 22.375 -37.375 22.375 -35 22 C-35 21.34 -35 20.68 -35 20 C-31.7 20 -28.4 20 -25 20 C-25 16.04 -25 12.08 -25 8 C-30.19025233 8 -33.09466162 8.43907318 -37.875 10 Z M-36 32 C-36 32.66 -36 33.32 -36 34 C-36.763125 33.938125 -37.52625 33.87625 -38.3125 33.8125 C-41.0205342 33.75501691 -41.0205342 33.75501691 -42.8125 35.375 C-44.1966722 36.93368783 -44.1966722 36.93368783 -44 39 C-44.66 39 -45.32 39 -46 39 C-46 39.99 -46 40.98 -46 42 C-46.99 42 -47.98 42 -49 42 C-49.33 42.99 -49.66 43.98 -50 45 C-50.66 45.33 -51.32 45.66 -52 46 C-52.40729228 48.32156597 -52.74438677 50.6568787 -53 53 C-53.66 53 -54.32 53 -55 53 C-55.19555932 55.72880461 -55.38170447 58.45771069 -55.5625 61.1875 C-55.64661133 62.34088867 -55.64661133 62.34088867 -55.73242188 63.51757812 C-55.99141557 67.54061353 -56.06573607 71.06072372 -55 75 C-54.34 75 -53.68 75 -53 75 C-52.67 76.65 -52.34 78.3 -52 80 C-51.34 80 -50.68 80 -50 80 C-49.67 81.98 -49.34 83.96 -49 86 C-48.01 86 -47.02 86 -46 86 C-46 86.99 -46 87.98 -46 89 C-45.34 89 -44.68 89 -44 89 C-44 89.99 -44 90.98 -44 92 C-43.01 92 -42.02 92 -41 92 C-41 92.66 -41 93.32 -41 94 C-40.34 94 -39.68 94 -39 94 C-38.505 94.99 -38.505 94.99 -38 96 C-35.09740189 97.3749149 -33.23861295 98 -30 98 C-30 98.66 -30 99.32 -30 100 C-28.35 100 -26.7 100 -25 100 C-25 96.7 -25 93.4 -25 90 C-26.4025 89.21625 -27.805 88.4325 -29.25 87.625 C-30.03890625 87.18414062 -30.8278125 86.74328125 -31.640625 86.2890625 C-33.1411505 85.46923897 -34.65715261 84.67669497 -36.19140625 83.921875 C-38.27642951 82.85909856 -39.52936211 81.82078977 -41 80 C-41.6875 77.8125 -41.6875 77.8125 -42 76 C-42.66 76 -43.32 76 -44 76 C-43.89000392 72.24940197 -43.75940131 68.49979656 -43.625 64.75 C-43.57859375 63.15478516 -43.57859375 63.15478516 -43.53125 61.52734375 C-43.49257812 60.50253906 -43.45390625 59.47773438 -43.4140625 58.421875 C-43.3826416 57.47924805 -43.3512207 56.53662109 -43.31884766 55.56542969 C-42.64700131 50.15979306 -40.1469053 48.2738726 -36 45 C-36 44.34 -36 43.68 -36 43 C-35.37351562 42.79503906 -34.74703125 42.59007812 -34.1015625 42.37890625 C-33.28429687 42.10949219 -32.46703125 41.84007812 -31.625 41.5625 C-30.81289062 41.29566406 -30.00078125 41.02882813 -29.1640625 40.75390625 C-26.98968201 40.04820271 -26.98968201 40.04820271 -25 39 C-25 35.7 -25 32.4 -25 29 C-29.98887899 29 -31.79759598 29.65447218 -36 32 Z M-30 51 C-30 51.66 -30 52.32 -30 53 C-30.66 53 -31.32 53 -32 53 C-32.33 54.98 -32.66 56.96 -33 59 C-33.99 59.33 -34.98 59.66 -36 60 C-36.45356243 66.46326465 -35.59378942 69.60931587 -32 75 C-31.34 75 -30.68 75 -30 75 C-29.67 75.99 -29.34 76.98 -29 78 C-27.68 78 -26.36 78 -25 78 C-25 68.76 -25 59.52 -25 50 C-27.21081851 49.89459074 -27.21081851 49.89459074 -30 51 Z " fill="#101010" transform="translate(155,133)"/>
<path d="M0 0 C98.67 0 197.34 0 299 0 C299.33 1.65 299.66 3.3 300 5 C296.89213164 5.91056237 294.11852167 6.12441562 290.88506699 6.12304783 C289.32649306 6.1260344 289.32649306 6.1260344 287.73643279 6.12908131 C286.59636346 6.12616847 285.45629413 6.12325563 284.28167725 6.12025452 C283.06952805 6.12110894 281.85737885 6.12196337 280.60849786 6.12284368 C277.24264777 6.12420749 273.87685564 6.12107654 270.51101255 6.11606562 C266.88187377 6.11175168 263.25273682 6.11320822 259.62359619 6.1139679 C253.33542201 6.11449253 247.04725819 6.11135203 240.75908661 6.10573006 C231.66741941 6.09760689 222.57575722 6.094999 213.48408678 6.09374207 C198.73385449 6.09155283 183.98362773 6.08489623 169.23339844 6.07543945 C154.90397164 6.06626201 140.57454633 6.0591828 126.24511719 6.05493164 C124.92046749 6.05453756 124.92046749 6.05453756 123.5690572 6.05413551 C119.13885465 6.05283048 114.7086521 6.05156677 110.27844954 6.05032361 C73.51896245 6.039955 36.75948166 6.02234017 0 6 C0 4.02 0 2.04 0 0 Z " fill="#2C2C2C" transform="translate(222,194)"/>
<path d="M0 0 C0 0.99 0 1.98 0 3 C0.99 3 1.98 3 3 3 C3 3.66 3 4.32 3 5 C3.66 5 4.32 5 5 5 C5.05392397 7.77109307 5.09363455 10.54113818 5.125 13.3125 C5.14175781 14.09818359 5.15851563 14.88386719 5.17578125 15.69335938 C5.18222656 16.45068359 5.18867188 17.20800781 5.1953125 17.98828125 C5.20578613 18.68477783 5.21625977 19.38127441 5.22705078 20.09887695 C5 22 5 22 3 25 C2.34 25 1.68 25 1 25 C0.67 25.99 0.34 26.98 0 28 C-0.99 28 -1.98 28 -3 28 C-3.33 28.99 -3.66 29.98 -4 31 C-11.27646454 31.49331963 -11.27646454 31.49331963 -14.75 29.125 C-15.4925 28.42375 -16.235 27.7225 -17 27 C-18.32567199 26.31822584 -19.65753688 25.64808564 -21 25 C-23.46542986 22.53457014 -23.2600215 21.10709746 -23.2734375 17.73632812 C-23.26570313 17.06021484 -23.25796875 16.38410156 -23.25 15.6875 C-23.25515625 14.37136719 -23.2603125 13.05523437 -23.265625 11.69921875 C-23.01911241 8.26616837 -22.67991003 5.98464015 -21 3 C-20.01 2.67 -19.02 2.34 -18 2 C-18 1.34 -18 0.68 -18 0 C-12.65450281 -1.12536783 -5.06932075 -2.53466037 0 0 Z M-14 8 C-16.29518219 10.3743264 -16.96098229 11.42774033 -17.1875 14.75 C-17.125625 15.4925 -17.06375 16.235 -17 17 C-16.34 17 -15.68 17 -15 17 C-14.67 18.65 -14.34 20.3 -14 22 C-8.94990405 22.93786082 -8.94990405 22.93786082 -4 22 C-2.23746182 20.8210248 -2.23746182 20.8210248 -1 19 C-0.63786432 16.48710325 -0.63786432 16.48710325 -0.8125 13.8125 C-0.83957031 12.91144531 -0.86664063 12.01039063 -0.89453125 11.08203125 C-0.92933594 10.39496094 -0.96414063 9.70789063 -1 9 C-1.66 9 -2.32 9 -3 9 C-3.33 8.01 -3.66 7.02 -4 6 C-8.42449877 4.60944324 -10.33711889 5.20464337 -14 8 Z " fill="#181818" transform="translate(303,161)"/>
<path d="M0 0 C0 0.99 0 1.98 0 3 C0.66 3 1.32 3 2 3 C3.125 6.75 3.125 6.75 2 9 C1.34 9 0.68 9 0 9 C0 9.66 0 10.32 0 11 C-0.99 11 -1.98 11 -3 11 C-3 10.34 -3 9.68 -3 9 C-3.99 8.67 -4.98 8.34 -6 8 C-6 7.34 -6 6.68 -6 6 C-8.64 6 -11.28 6 -14 6 C-14 6.99 -14 7.98 -14 9 C-14.495 9.45375 -14.99 9.9075 -15.5 10.375 C-17.22274805 11.93773261 -17.22274805 11.93773261 -17.375 14.4375 C-16.91730725 17.56506709 -16.31372597 18.84052243 -14 21 C-11.19142252 22.26010343 -11.19142252 22.26010343 -8 22 C-5.73706949 20.54487683 -3.98284051 18.84764684 -2 17 C-1.34 17 -0.68 17 0 17 C0 17.66 0 18.32 0 19 C0.99 19 1.98 19 3 19 C3 20.98 3 22.96 3 25 C2.01 25 1.02 25 0 25 C0 25.99 0 26.98 0 28 C-5.19231353 30.64913956 -8.14633147 31.49002472 -14 30 C-17.4375 28.4375 -17.4375 28.4375 -20 27 C-20 26.34 -20 25.68 -20 25 C-20.99 25 -21.98 25 -23 25 C-23 23.35 -23 21.7 -23 20 C-23.99 20 -24.98 20 -26 20 C-26 16.37 -26 12.74 -26 9 C-25.34 8.67 -24.68 8.34 -24 8 C-23.690625 7.21625 -23.38125 6.4325 -23.0625 5.625 C-21.99098082 2.97771732 -21.23965669 1.72281284 -19 0 C-12.86470191 -1.91400325 -6.20940587 -1.27372428 0 0 Z " fill="#222222" transform="translate(361,161)"/>
<path d="M0 0 C0 0.66 0 1.32 0 2 C0.99 2 1.98 2 3 2 C3 2.66 3 3.32 3 4 C3.66 4 4.32 4 5 4 C5 5.32 5 6.64 5 8 C4.34 8.66 3.68 9.32 3 10 C1.68 10 0.36 10 -1 10 C-1.66 8.35 -2.32 6.7 -3 5 C-5.78938212 4.58109782 -5.78938212 4.58109782 -9 5 C-11.75041666 7.41666771 -11.75041666 7.41666771 -14 10 C-14.66 10 -15.32 10 -16 10 C-16 11.98 -16 13.96 -16 16 C-15.34 16 -14.68 16 -14 16 C-14 17.65 -14 19.3 -14 21 C-10.7 21 -7.4 21 -4 21 C-3.67 20.01 -3.34 19.02 -3 18 C2.75 16.875 2.75 16.875 5 18 C4.67 19.98 4.34 21.96 4 24 C3.34 24 2.68 24 2 24 C1.67 24.99 1.34 25.98 1 27 C0.01 27.33 -0.98 27.66 -2 28 C-2.33 28.66 -2.66 29.32 -3 30 C-5.97 30 -8.94 30 -12 30 C-12 29.34 -12 28.68 -12 28 C-13.65 27.67 -15.3 27.34 -17 27 C-17 26.01 -17 25.02 -17 24 C-17.99 24 -18.98 24 -20 24 C-22.26885652 21.77375111 -22.94940709 20.35613439 -23.3984375 17.1953125 C-23.35362251 11.32454877 -23.30132752 6.95199129 -20 2 C-19.01 2 -18.02 2 -17 2 C-17 1.01 -17 0.02 -17 -1 C-11.42991117 -2.39252221 -5.00818455 -3.3387897 0 0 Z " fill="#191919" transform="translate(486,162)"/>
<path d="M0 0 C12.54545455 0 12.54545455 0 17 2 C19.13439624 5.23602011 20 7.12148627 20 11 C19.34 11 18.68 11 18 11 C17.67 12.98 17.34 14.96 17 17 C16.34 17 15.68 17 15 17 C15 17.99 15 18.98 15 20 C15.66 20 16.32 20 17 20 C17 20.99 17 21.98 17 23 C17.99 23 18.98 23 20 23 C20.33 25.31 20.66 27.62 21 30 C17.7 29.67 14.4 29.34 11 29 C11 27.68 11 26.36 11 25 C10.34 24.67 9.68 24.34 9 24 C9 23.01 9 22.02 9 21 C8.01 21 7.02 21 6 21 C6.020625 22.11375 6.04125 23.2275 6.0625 24.375 C6 28 6 28 5 30 C3.35 30 1.7 30 0 30 C0 20.1 0 10.2 0 0 Z M7 6 C5.70366379 7.06645115 5.70366379 7.06645115 5.9375 9.5625 C5.958125 10.366875 5.97875 11.17125 6 12 C7.65 12 9.3 12 11 12 C11 10.35 11 8.7 11 7 C9.05396726 6.40929986 9.05396726 6.40929986 7 6 Z " fill="#1C1C1C" transform="translate(435,160)"/>
<path d="M0 0 C6.38333296 0 11.81546408 0.08377246 18 1 C18.33 1.99 18.66 2.98 19 4 C19.99 4 20.98 4 22 4 C25.47904772 9.07361126 25.42487034 13.93911457 25.59375 19.9765625 C24.82073485 23.91283701 23.2368856 24.79212433 20 27 C19.67 27.66 19.34 28.32 19 29 C15.23508833 30.25497056 11.72793525 30.10661648 7.8125 30.0625 C5.234375 30.041875 2.65625 30.02125 0 30 C0 20.1 0 10.2 0 0 Z M5 6 C5 11.94 5 17.88 5 24 C8.63 23.67 12.26 23.34 16 23 C16 21.35 16 19.7 16 18 C16.99 18 17.98 18 19 18 C19.20140476 14.37471432 18.85776765 12.13498292 17 9 C16.01 9 15.02 9 14 9 C13.67 8.01 13.34 7.02 13 6 C10.36 6 7.72 6 5 6 Z " fill="#1C1C1C" transform="translate(222,160)"/>
<path d="M0 0 C1.65 0 3.3 0 5 0 C5 5.94 5 11.88 5 18 C5.66 18 6.32 18 7 18 C7.33 19.65 7.66 21.3 8 23 C9.65 23 11.3 23 13 23 C13.33 22.34 13.66 21.68 14 21 C14.66 21 15.32 21 16 21 C16 14.4 16 7.8 16 1 C17.65 0.67 19.3 0.34 21 0 C22.68023 1.68023 22.13006804 3.75775928 22.1328125 6.05859375 C22.13474609 7.59676758 22.13474609 7.59676758 22.13671875 9.16601562 C22.13285156 10.24560547 22.12898438 11.32519531 22.125 12.4375 C22.13080078 14.05108398 22.13080078 14.05108398 22.13671875 15.69726562 C22.13542969 16.72400391 22.13414062 17.75074219 22.1328125 18.80859375 C22.13168457 19.75532959 22.13055664 20.70206543 22.12939453 21.67749023 C22 24 22 24 21 26 C20.34 26 19.68 26 19 26 C18.67 26.99 18.34 27.98 18 29 C17.34 29 16.68 29 16 29 C16 29.99 16 30.98 16 32 C9.9453125 32.1953125 9.9453125 32.1953125 8 32 C7.34 31.34 6.68 30.68 6 30 C5.34 29.9175 4.68 29.835 4 29.75 C3.34 29.5025 2.68 29.255 2 29 C0.8125 26 0.8125 26 0 23 C-0.33 22.67 -0.66 22.34 -1 22 C-1.09883336 20.53521494 -1.13079289 19.06577042 -1.1328125 17.59765625 C-1.13474609 16.26250977 -1.13474609 16.26250977 -1.13671875 14.90039062 C-1.13285156 13.96388672 -1.12898438 13.02738281 -1.125 12.0625 C-1.12886719 11.12986328 -1.13273437 10.19722656 -1.13671875 9.23632812 C-1.13542969 8.34494141 -1.13414062 7.45355469 -1.1328125 6.53515625 C-1.13168457 5.714104 -1.13055664 4.89305176 -1.12939453 4.04711914 C-1 2 -1 2 0 0 Z " fill="#191919" transform="translate(403,160)"/>
<path d="M0 0 C1.35015859 4.05047576 0.62084998 6.7920168 0 11 C2.64 11 5.28 11 8 11 C7.67 7.37 7.34 3.74 7 0 C12.75 -1.125 12.75 -1.125 15 0 C14.88201056 3.96952899 14.75778201 7.93880781 14.62768555 11.90795898 C14.58428777 13.25914147 14.5426163 14.61038053 14.50268555 15.96166992 C14.44510048 17.90036701 14.38085702 19.83886276 14.31640625 21.77734375 C14.27974854 22.94515381 14.24309082 24.11296387 14.20532227 25.31616211 C14 28 14 28 13 29 C11.35 29 9.7 29 8 29 C8 25.04 8 21.08 8 17 C5.36 17 2.72 17 0 17 C0.01160156 17.78246094 0.02320313 18.56492188 0.03515625 19.37109375 C0.04417969 20.38300781 0.05320312 21.39492187 0.0625 22.4375 C0.07410156 23.44683594 0.08570313 24.45617187 0.09765625 25.49609375 C0 28 0 28 -1 29 C-2.66617115 29.04063832 -4.33388095 29.042721 -6 29 C-6.95468258 22.62542652 -7.1202324 16.43938347 -7.0625 10 C-7.05798828 9.03449219 -7.05347656 8.06898438 -7.04882812 7.07421875 C-7.03715417 4.71607911 -7.02078021 2.35807398 -7 0 C-4.3333581 -1.33332095 -2.83319697 -0.67102033 0 0 Z " fill="#171717" transform="translate(379,161)"/>
<path d="M0 0 C1.65 0.33 3.3 0.66 5 1 C5 4.63 5 8.26 5 12 C7.64 11.67 10.28 11.34 13 11 C12.98839844 10.37351563 12.97679687 9.74703125 12.96484375 9.1015625 C12.95582031 8.28429687 12.94679688 7.46703125 12.9375 6.625 C12.92589844 5.81289062 12.91429687 5.00078125 12.90234375 4.1640625 C13 2 13 2 14 0 C16.475 0.495 16.475 0.495 19 1 C19 10.57 19 20.14 19 30 C17.35 30 15.7 30 14 30 C13.23826608 25.6835078 12.83936396 22.25566547 14 18 C11.03 18 8.06 18 5 18 C5 21.96 5 25.92 5 30 C3.35 30 1.7 30 0 30 C-0.16728213 25.88850113 -0.32787468 21.77680194 -0.48217773 17.66479492 C-0.53566026 16.26498319 -0.59099434 14.86524096 -0.64819336 13.46557617 C-0.72992949 11.4577104 -0.80453025 9.44955813 -0.87890625 7.44140625 C-0.9260376 6.23170166 -0.97316895 5.02199707 -1.02172852 3.77563477 C-1 1 -1 1 0 0 Z " fill="#161616" transform="translate(500,160)"/>
<path d="M0 0 C5.28 0 10.56 0 16 0 C16.33 1.65 16.66 3.3 17 5 C16 6 16 6 13.71484375 6.09765625 C12.34005859 6.08025391 12.34005859 6.08025391 10.9375 6.0625 C10.01839844 6.05347656 9.09929687 6.04445312 8.15234375 6.03515625 C7.44207031 6.02355469 6.73179687 6.01195312 6 6 C6 7.98 6 9.96 6 12 C8.97 12 11.94 12 15 12 C17 16.875 17 16.875 17 18 C13.37 18 9.74 18 6 18 C6 19.98 6 21.96 6 24 C7.06541016 23.87431641 7.06541016 23.87431641 8.15234375 23.74609375 C9.53099609 23.59333984 9.53099609 23.59333984 10.9375 23.4375 C11.85402344 23.33308594 12.77054687 23.22867188 13.71484375 23.12109375 C14.84599609 23.06115234 14.84599609 23.06115234 16 23 C17 24 17 24 17 30 C11.72 30 6.44 30 1 30 C-0.40912096 27.18175808 -0.11183553 24.82748718 -0.09765625 21.6796875 C-0.09443359 20.42285156 -0.09121094 19.16601562 -0.08789062 17.87109375 C-0.07951172 16.55238281 -0.07113281 15.23367187 -0.0625 13.875 C-0.05748489 12.53515789 -0.05292201 11.195314 -0.04882812 9.85546875 C-0.03701095 6.57029343 -0.01907501 3.28514119 0 0 Z " fill="#1C1C1C" transform="translate(255,160)"/>
<path d="M0 0 C0.495 2.475 0.495 2.475 1 5 C-2.73886856 6.20064547 -6.25068173 6.08231701 -10.15527344 6.02172852 C-10.86786819 6.01212097 -11.58046295 6.00251343 -12.31465149 5.99261475 C-14.66299596 5.95971256 -17.01114926 5.91934709 -19.359375 5.87890625 C-20.99032931 5.85459654 -22.62129063 5.83075341 -24.2522583 5.80735779 C-28.53981533 5.74460152 -32.82724777 5.67551101 -37.11468506 5.60510254 C-41.49176369 5.53434262 -45.86893049 5.46957151 -50.24609375 5.40429688 C-58.83082681 5.27539357 -67.41543749 5.13979864 -76 5 C-76 4.34 -76 3.68 -76 3 C-77.65 2.67 -79.3 2.34 -81 2 C-81 1.67 -81 1.34 -81 1 C-70.88187794 0.86939007 -60.76375325 0.73898674 -50.64562511 0.60884857 C-45.94758664 0.54841643 -41.24954912 0.48791261 -36.55151367 0.42724609 C-32.01928735 0.36872332 -27.48705867 0.31038737 -22.95482826 0.25218201 C-21.22404202 0.22992127 -19.49325664 0.20759274 -17.76247215 0.18519592 C-15.3418945 0.15388447 -12.92131389 0.12281211 -10.50073242 0.09179688 C-9.78216064 0.08244614 -9.06358887 0.0730954 -8.32324219 0.0634613 C-5.54854603 0.02811041 -2.77496066 0 0 0 Z " fill="#202020" transform="translate(521,194)"/>
<path d="M0 0 C1.670625 0.061875 1.670625 0.061875 3.375 0.125 C3.375 0.785 3.375 1.445 3.375 2.125 C5.025 2.455 6.675 2.785 8.375 3.125 C8.375 7.415 8.375 11.705 8.375 16.125 C6.725 16.455 5.075 16.785 3.375 17.125 C3.375 17.785 3.375 18.445 3.375 19.125 C1.725 19.125 0.075 19.125 -1.625 19.125 C-1.625 18.465 -1.625 17.805 -1.625 17.125 C-2.945 17.125 -4.265 17.125 -5.625 17.125 C-5.625 16.135 -5.625 15.145 -5.625 14.125 C-6.615 13.795 -7.605 13.465 -8.625 13.125 C-8.625 10.485 -8.625 7.845 -8.625 5.125 C-7.635 5.125 -6.645 5.125 -5.625 5.125 C-5.625 4.135 -5.625 3.145 -5.625 2.125 C-3.625 0.125 -3.625 0.125 0 0 Z M0.375 6.125 C0.375 6.785 0.375 7.445 0.375 8.125 C1.035 8.125 1.695 8.125 2.375 8.125 C2.375 7.465 2.375 6.805 2.375 6.125 C1.715 6.125 1.055 6.125 0.375 6.125 Z M-2.625 8.125 C-2.625 8.785 -2.625 9.445 -2.625 10.125 C-1.635 9.795 -0.645 9.465 0.375 9.125 C-0.615 8.795 -1.605 8.465 -2.625 8.125 Z " fill="#0E0E0E" transform="translate(285.625,202.875)"/>
<path d="M0 0 C2.76276177 0.52268466 5.3260876 1.10869587 8 2 C8 6.95 8 11.9 8 17 C4 19 4 19 1.9375 18.6875 C1.298125 18.460625 0.65875 18.23375 0 18 C-0.99 17.67 -1.98 17.34 -3 17 C-4.33257403 6.44191344 -4.33257403 6.44191344 -3 2 C-2.01 2 -1.02 2 0 2 C0 1.34 0 0.68 0 0 Z " fill="#1A1A1A" transform="translate(497,203)"/>
<path d="M0 0 C0.33 3.63 0.66 7.26 1 11 C1.66 11 2.32 11 3 11 C3 7.37 3 3.74 3 0 C4.98 0 6.96 0 9 0 C9 4.62 9 9.24 9 14 C7.68 14.33 6.36 14.66 5 15 C4.67 15.66 4.34 16.32 4 17 C1.03824877 16.38722388 -0.38058783 15.74627478 -3 14 C-3 13.34 -3 12.68 -3 12 C-3.66 12 -4.32 12 -5 12 C-5.83220851 8.02389268 -6.23098442 4.9167686 -5 1 C-3 0 -3 0 0 0 Z " fill="#1C1C1C" transform="translate(302,205)"/>
<path d="M0 0 C1.03876383 3.11629149 1.13361625 5.3594429 1.125 8.625 C1.12757813 9.60726562 1.13015625 10.58953125 1.1328125 11.6015625 C1 14 1 14 0 15 C-3.6691577 15.14310287 -7.32715441 15.04221662 -11 15 C-11 10.05 -11 5.1 -11 0 C-6.80104745 -1.04973814 -4.20594226 -0.72795155 0 0 Z " fill="#101010" transform="translate(247,205)"/>
<path d="M0 0 C7.01114336 0.09248071 14.02194761 0.19981393 21.03271484 0.31738281 C23.41677721 0.35562114 25.80089625 0.39048293 28.18505859 0.421875 C31.61576569 0.46763683 35.04608432 0.52561389 38.4765625 0.5859375 C40.07064438 0.60326431 40.07064438 0.60326431 41.69692993 0.62094116 C46.83763493 0.72302572 51.19322429 0.94613032 56 3 C56 3.33 56 3.66 56 4 C55.0140107 4.0154612 55.0140107 4.0154612 54.00810242 4.03123474 C47.17888335 4.13924871 40.34979759 4.25385097 33.52075195 4.37231445 C30.97065006 4.41567967 28.42051884 4.45735356 25.87036133 4.49731445 C22.20905711 4.55497839 18.54790078 4.61868425 14.88671875 4.68359375 C13.17097908 4.70866249 13.17097908 4.70866249 11.420578 4.73423767 C9.82926811 4.7641555 9.82926811 4.7641555 8.20581055 4.79467773 C6.80349434 4.81799416 6.80349434 4.81799416 5.37284851 4.84178162 C2.85013487 4.90972708 2.85013487 4.90972708 0 6 C0 4.02 0 2.04 0 0 Z " fill="#2C2C2C" transform="translate(222,194)"/>
<path d="M0 0 C1.62490954 -0.02698189 3.24994633 -0.04638757 4.875 -0.0625 C5.77992188 -0.07410156 6.68484375 -0.08570313 7.6171875 -0.09765625 C10 0 10 0 12 1 C12 1.99 12 2.98 12 4 C12.99 4 13.98 4 15 4 C15 4.66 15 5.32 15 6 C15.66 6 16.32 6 17 6 C17 11.28 17 16.56 17 22 C14.36 21.67 11.72 21.34 9 21 C9.66 20.67 10.32 20.34 11 20 C11 16.7 11 13.4 11 10 C10.34 10 9.68 10 9 10 C8.67 9.34 8.34 8.68 8 8 C4.71585695 7.04932701 3.30306592 6.89897803 0 8 C0 7.34 0 6.68 0 6 C1.62626404 4.61767557 3.2925002 3.28062485 5 2 C3.35 1.67 1.7 1.34 0 1 C0 0.67 0 0.34 0 0 Z " fill="#272727" transform="translate(291,160)"/>
<path d="M0 0 C0.99 0 1.98 0 3 0 C3 5.28 3 10.56 3 16 C-0.63 16 -4.26 16 -8 16 C-8 11.05 -8 6.1 -8 1 C-6.35 1 -4.7 1 -3 1 C-3 1.99 -3 2.98 -3 4 C-2.34 4 -1.68 4 -1 4 C-0.67 2.68 -0.34 1.36 0 0 Z " fill="#111111" transform="translate(272,204)"/>
<path d="M0 0 C0.99 0 1.98 0 3 0 C3 5.28 3 10.56 3 16 C-0.63 16 -4.26 16 -8 16 C-8 11.05 -8 6.1 -8 1 C-6.35 1 -4.7 1 -3 1 C-2.67 1.99 -2.34 2.98 -2 4 C-1.34 4 -0.68 4 0 4 C0 2.68 0 1.36 0 0 Z " fill="#121212" transform="translate(474,204)"/>
<path d="M0 0 C1.32 0 2.64 0 4 0 C4 1.65 4 3.3 4 5 C4.66 5 5.32 5 6 5 C6.33 3.35 6.66 1.7 7 0 C8.65 0.33 10.3 0.66 12 1 C12 5.29 12 9.58 12 14 C10.35 14.33 8.7 14.66 7 15 C6 14 6 14 5.9375 11.4375 C5.958125 10.633125 5.97875 9.82875 6 9 C5.34 9 4.68 9 4 9 C4 10.98 4 12.96 4 15 C2.68 15 1.36 15 0 15 C0 10.05 0 5.1 0 0 Z " fill="#414141" transform="translate(385,205)"/>
<path d="M0 0 C3.30698302 -0.23071975 5.72942826 -0.09411191 8.875 1 C11 3 11 3 11.30859375 4.98046875 C11.31214975 6.98961099 11.16413359 8.99757014 11 11 C8.69 11 6.38 11 4 11 C4 12.98 4 14.96 4 17 C2.35 17 0.7 17 -1 17 C-1.02691685 14.54159395 -1.04679802 12.08348118 -1.0625 9.625 C-1.07087891 8.92632812 -1.07925781 8.22765625 -1.08789062 7.5078125 C-1.11328125 2.2265625 -1.11328125 2.2265625 0 0 Z " fill="#252425" transform="translate(445,203)"/>
<path d="M0 0 C0 1.32 0 2.64 0 4 C-2.97 3.505 -2.97 3.505 -6 3 C-6 3.66 -6 4.32 -6 5 C-3.03 5.495 -3.03 5.495 0 6 C0 6.99 0 7.98 0 9 C-1.98 9 -3.96 9 -6 9 C-6 9.99 -6 10.98 -6 12 C-4.35 11.67 -2.7 11.34 -1 11 C-0.67 12.32 -0.34 13.64 0 15 C-3.63 15 -7.26 15 -11 15 C-11 10.05 -11 5.1 -11 0 C-6.94952424 -1.35015859 -4.2079832 -0.62084998 0 0 Z " fill="#151515" transform="translate(261,205)"/>
<path d="M0 0 C0 0.66 0 1.32 0 2 C0.99 2 1.98 2 3 2 C3 2.99 3 3.98 3 5 C3.99 5 4.98 5 6 5 C6 5.99 6 6.98 6 8 C5.01 8 4.02 8 3 8 C3 8.99 3 9.98 3 11 C1.35 11 -0.3 11 -2 11 C-2 12.65 -2 14.3 -2 16 C-5.75 17.125 -5.75 17.125 -8 16 C-8.0810206 13.89646505 -8.13919907 11.79204048 -8.1875 9.6875 C-8.22230469 8.51574219 -8.25710938 7.34398437 -8.29296875 6.13671875 C-8 3 -8 3 -6.65625 1.09375 C-4.38602488 -0.40545527 -2.65931648 -0.21562026 0 0 Z " fill="#1B1B1B" transform="translate(377,203)"/>
<path d="M0 0 C0 0.66 0 1.32 0 2 C1.98 2 3.96 2 6 2 C6.70074844 5.153368 7 7.72724974 7 11 C4.69 11 2.38 11 0 11 C-0.33 12.98 -0.66 14.96 -1 17 C-2.32 17 -3.64 17 -5 17 C-5.08076963 14.54101345 -5.14037143 12.08466258 -5.1875 9.625 C-5.21263672 8.92632812 -5.23777344 8.22765625 -5.26367188 7.5078125 C-5.29296875 5.4765625 -5.29296875 5.4765625 -5 2 C-2 0 -2 0 0 0 Z " fill="#1C1C1C" transform="translate(435,203)"/>
<path d="M0 0 C4.4943787 0.01505655 8.72069815 0.22535956 13.14453125 1.1328125 C13.14453125 2.1228125 13.14453125 3.1128125 13.14453125 4.1328125 C13.80453125 4.1328125 14.46453125 4.1328125 15.14453125 4.1328125 C16.26953125 7.8828125 16.26953125 7.8828125 15.14453125 10.1328125 C14.48453125 10.1328125 13.82453125 10.1328125 13.14453125 10.1328125 C13.14453125 10.7928125 13.14453125 11.4528125 13.14453125 12.1328125 C12.15453125 12.1328125 11.16453125 12.1328125 10.14453125 12.1328125 C10.14453125 11.4728125 10.14453125 10.8128125 10.14453125 10.1328125 C9.15453125 9.8028125 8.16453125 9.4728125 7.14453125 9.1328125 C7.14453125 8.4728125 7.14453125 7.8128125 7.14453125 7.1328125 C6.18740234 7.15021484 6.18740234 7.15021484 5.2109375 7.16796875 C3.97150391 7.18150391 3.97150391 7.18150391 2.70703125 7.1953125 C1.47146484 7.21271484 1.47146484 7.21271484 0.2109375 7.23046875 C-1.85546875 7.1328125 -1.85546875 7.1328125 -2.85546875 6.1328125 C-2.98046875 3.6328125 -2.98046875 3.6328125 -2.85546875 1.1328125 C-1.85546875 0.1328125 -1.85546875 0.1328125 0 0 Z " fill="#282828" transform="translate(347.85546875,159.8671875)"/>
<path d="M0 0 C3.3 0 6.6 0 10 0 C10 1.32 10 2.64 10 4 C8.68 4 7.36 4 6 4 C8.475 4.99 8.475 4.99 11 6 C10.67 6.99 10.34 7.98 10 9 C8.35 9 6.7 9 5 9 C6.95216435 10.95216435 8.53199953 11.84826645 11 13 C10.67 13.66 10.34 14.32 10 15 C6.7 15 3.4 15 0 15 C0 10.05 0 5.1 0 0 Z " fill="#1F1E1E" transform="translate(314,205)"/>
<path d="M0 0 C2.64 0.33 5.28 0.66 8 1 C7.814375 1.7425 7.62875 2.485 7.4375 3.25 C7.00796892 5.94990963 7.14877026 7.44631077 8 10 C6.35 10 4.7 10 3 10 C3 10.99 3 11.98 3 13 C4.32 12.67 5.64 12.34 7 12 C7.33 13.32 7.66 14.64 8 16 C5.36 16 2.72 16 0 16 C0 10.72 0 5.44 0 0 Z " fill="#090909" transform="translate(483,204)"/>
<path d="M0 0 C4.20831868 -0.02914348 8.41661122 -0.04684712 12.625 -0.0625 C14.40970703 -0.07506836 14.40970703 -0.07506836 16.23046875 -0.08789062 C17.38417969 -0.09111328 18.53789062 -0.09433594 19.7265625 -0.09765625 C21.31331787 -0.10551147 21.31331787 -0.10551147 22.93212891 -0.11352539 C26.03362346 0.00124422 28.95347657 0.42303718 32 1 C31.67 1.99 31.34 2.98 31 4 C16.15 4 1.3 4 -14 4 C-14 3.67 -14 3.34 -14 3 C-4.76 2.67 4.48 2.34 14 2 C7.07 1.505 7.07 1.505 0 1 C0 0.67 0 0.34 0 0 Z " fill="#363636" transform="translate(414,195)"/>
<path d="M0 0 C0.99 0 1.98 0 3 0 C3.33 3.63 3.66 7.26 4 11 C5.98 11 7.96 11 10 11 C9.67 12.32 9.34 13.64 9 15 C7.52093108 15.02689216 6.04172517 15.04634621 4.5625 15.0625 C3.32693359 15.07990234 3.32693359 15.07990234 2.06640625 15.09765625 C0 15 0 15 -1 14 C-1.0989294 11.83519203 -1.129711 9.66706215 -1.125 7.5 C-1.12757813 6.3140625 -1.13015625 5.128125 -1.1328125 3.90625 C-1 1 -1 1 0 0 Z " fill="#050505" transform="translate(409,205)"/>
<path d="M0 0 C10.23 0 20.46 0 31 0 C31.33 0.66 31.66 1.32 32 2 C29.12981559 3.43509221 26.66456277 3.11158506 23.4609375 3.09765625 C22.15898437 3.09443359 20.85703125 3.09121094 19.515625 3.08789062 C18.13541601 3.07953466 16.75520768 3.07106971 15.375 3.0625 C13.98698074 3.05748501 12.59895978 3.0529221 11.2109375 3.04882812 C7.80724868 3.03700976 4.40364561 3.02053434 1 3 C0.67 2.01 0.34 1.02 0 0 Z " fill="#070707" transform="translate(289,195)"/>
<path d="M0 0 C0.33 1.65 0.66 3.3 1 5 C-2.30312756 6.03647521 -4.9886447 5.98440578 -8.421875 5.66015625 C-9.95908203 5.5199707 -9.95908203 5.5199707 -11.52734375 5.37695312 C-13.12255859 5.22129883 -13.12255859 5.22129883 -14.75 5.0625 C-16.36841797 4.91264648 -16.36841797 4.91264648 -18.01953125 4.75976562 C-20.68031187 4.51252495 -23.34034775 4.25905292 -26 4 C-25.67 3.34 -25.34 2.68 -25 2 C-20.58799502 0.71387499 -15.94032021 0.67511479 -11.375 0.4375 C-10.611875 0.39431641 -9.84875 0.35113281 -9.0625 0.30664062 C-6.03782961 0.13948779 -3.02981632 0 0 0 Z " fill="#030303" transform="translate(521,194)"/>
<path d="M0 0 C2.05078125 0.03255208 4.1015625 0.06510417 6.15234375 0.09765625 C6.48234375 1.41765625 6.81234375 2.73765625 7.15234375 4.09765625 C6.16234375 4.09765625 5.17234375 4.09765625 4.15234375 4.09765625 C4.15234375 7.72765625 4.15234375 11.35765625 4.15234375 15.09765625 C2.83234375 15.09765625 1.51234375 15.09765625 0.15234375 15.09765625 C0.07886719 14.08445313 0.07886719 14.08445313 0.00390625 13.05078125 C-0.07085937 12.15875 -0.145625 11.26671875 -0.22265625 10.34765625 C-0.29226563 9.4659375 -0.361875 8.58421875 -0.43359375 7.67578125 C-0.8461568 5.10699243 -1.55926582 3.3392461 -2.84765625 1.09765625 C-1.84765625 0.09765625 -1.84765625 0.09765625 0 0 Z " fill="#323232" transform="translate(328.84765625,204.90234375)"/>
<path d="M0 0 C1.65 0 3.3 0 5 0 C5 4.95 5 9.9 5 15 C3.35 15 1.7 15 0 15 C0 10.05 0 5.1 0 0 Z " fill="#0E0E0E" transform="translate(400,205)"/>
<path d="M0 0 C0.33 4.62 0.66 9.24 1 14 C-0.32 14 -1.64 14 -3 14 C-3 13.34 -3 12.68 -3 12 C-3.66 12 -4.32 12 -5 12 C-5.83220851 8.02389268 -6.23098442 4.9167686 -5 1 C-3 0 -3 0 0 0 Z " fill="#181818" transform="translate(302,205)"/>
<path d="M0 0 C2.97 0 5.94 0 9 0 C8.5020163 3.73487777 8.12508244 5.81237635 6 9 C2.875 9.1875 2.875 9.1875 0 9 C0 6.03 0 3.06 0 0 Z " fill="#1A1A1A" transform="translate(349,208)"/>
<path d="M0 0 C1.32 0 2.64 0 4 0 C4.93619813 3.15506142 5.1057123 5.96586502 5.0625 9.25 C5.05347656 10.14203125 5.04445313 11.0340625 5.03515625 11.953125 C5.02355469 12.62859375 5.01195312 13.3040625 5 14 C3.35 14.33 1.7 14.66 0 15 C0 10.05 0 5.1 0 0 Z " fill="#161516" transform="translate(458,205)"/>
<path d="M0 0 C0.33 0 0.66 0 1 0 C1 4.29 1 8.58 1 13 C-0.65 13.33 -2.3 13.66 -4 14 C-5 13 -5 13 -5.0625 9.9375 C-5.041875 8.968125 -5.02125 7.99875 -5 7 C-5.66 7 -6.32 7 -7 7 C-7 6.34 -7 5.68 -7 5 C-5.68 5 -4.36 5 -3 5 C-3 4.01 -3 3.02 -3 2 C-2.34 2 -1.68 2 -1 2 C-0.67 1.34 -0.34 0.68 0 0 Z " fill="#121011" transform="translate(396,206)"/>
<path d="M0 0 C1.670625 0.061875 1.670625 0.061875 3.375 0.125 C3.375 0.785 3.375 1.445 3.375 2.125 C4.365 2.455 5.355 2.785 6.375 3.125 C5.385 3.125 4.395 3.125 3.375 3.125 C3.045 4.445 2.715 5.765 2.375 7.125 C1.715 6.795 1.055 6.465 0.375 6.125 C0.375 6.785 0.375 7.445 0.375 8.125 C-2.29166667 8.125 -4.95833333 8.125 -7.625 8.125 C-7.955 7.135 -8.285 6.145 -8.625 5.125 C-7.635 5.125 -6.645 5.125 -5.625 5.125 C-5.625 4.135 -5.625 3.145 -5.625 2.125 C-3.625 0.125 -3.625 0.125 0 0 Z " fill="#282828" transform="translate(285.625,202.875)"/>
<path d="M0 0 C0.33 0.66 0.66 1.32 1 2 C-3.2351496 2.21688524 -7.47060971 2.41377195 -11.70751953 2.59204102 C-13.14917937 2.65553381 -14.59060805 2.7245198 -16.03173828 2.79907227 C-18.10152815 2.90519707 -20.17134143 2.99163842 -22.2421875 3.07421875 C-24.11173096 3.16062622 -24.11173096 3.16062622 -26.01904297 3.2487793 C-27.00275879 3.16668213 -27.98647461 3.08458496 -29 3 C-29.66 2.01 -30.32 1.02 -31 0 C-20.65692201 -1.54197264 -10.38086071 -0.66087752 0 0 Z " fill="#060606" transform="translate(428,196)"/>
<path d="M0 0 C1.98 0.495 1.98 0.495 4 1 C4.70173653 5.38585329 5.10834375 9.55790643 5 14 C3.35 14.33 1.7 14.66 0 15 C-1.14229879 11.57310364 -0.90861076 9.38897782 -0.5625 5.8125 C-0.46066406 4.72582031 -0.35882813 3.63914063 -0.25390625 2.51953125 C-0.17011719 1.68808594 -0.08632813 0.85664063 0 0 Z " fill="#141414" transform="translate(422,205)"/>
<path d="M0 0 C0 0.33 0 0.66 0 1 C-4.10410755 1.05796132 -8.20811016 1.09358313 -12.3125 1.125 C-13.47974609 1.14175781 -14.64699219 1.15851563 -15.84960938 1.17578125 C-17.52700195 1.18544922 -17.52700195 1.18544922 -19.23828125 1.1953125 C-20.7857605 1.21102295 -20.7857605 1.21102295 -22.36450195 1.22705078 C-25 1 -25 1 -28 -1 C-24.83447255 -1.22882241 -21.66773036 -1.42924138 -18.5 -1.625 C-17.1696875 -1.72167969 -17.1696875 -1.72167969 -15.8125 -1.8203125 C-10.08030906 -2.1575002 -5.49640463 -1.68231076 0 0 Z " fill="#060606" transform="translate(278,197)"/>
<path d="M0 0 C0.99 0.495 0.99 0.495 2 1 C1.979375 2.0725 1.95875 3.145 1.9375 4.25 C1.9857984 7.14790424 2.13155885 9.28612141 3 12 C4.98 11.67 6.96 11.34 9 11 C9.99 12.485 9.99 12.485 11 14 C10 15 10 15 7.71484375 15.09765625 C5.14322917 15.06510417 2.57161458 15.03255208 0 15 C0 10.05 0 5.1 0 0 Z " fill="#333333" transform="translate(314,205)"/>
<path d="M0 0 C1.65 0.33 3.3 0.66 5 1 C4.67 2.98 4.34 4.96 4 7 C3.34 7 2.68 7 2 7 C2 7.66 2 8.32 2 9 C0.35 9 -1.3 9 -3 9 C-2.25 4.25 -2.25 4.25 0 2 C0 1.34 0 0.68 0 0 Z " fill="#151515" transform="translate(486,179)"/>
<path d="M0 0 C2.77109307 -0.05392397 5.54113818 -0.09363455 8.3125 -0.125 C9.09818359 -0.14175781 9.88386719 -0.15851563 10.69335938 -0.17578125 C11.45068359 -0.18222656 12.20800781 -0.18867188 12.98828125 -0.1953125 C13.68477783 -0.20578613 14.38127441 -0.21625977 15.09887695 -0.22705078 C17 0 17 0 20 2 C14.96200818 4.51899591 7.50704417 3.40187844 2.25 2 C1.13625 1.505 1.13625 1.505 0 1 C0 0.67 0 0.34 0 0 Z " fill="#363636" transform="translate(272,195)"/>
<path d="M0 0 C3.3 0 6.6 0 10 0 C10 0.33 10 0.66 10 1 C8.35 1.33 6.7 1.66 5 2 C11.93 2.495 11.93 2.495 19 3 C19 3.33 19 3.66 19 4 C12.4 4 5.8 4 -1 4 C-0.67 2.68 -0.34 1.36 0 0 Z " fill="#373737" transform="translate(491,195)"/>
<path d="M0 0 C0.99 0 1.98 0 3 0 C3 0.66 3 1.32 3 2 C3.66 2 4.32 2 5 2 C5 3.32 5 4.64 5 6 C4.34 6.66 3.68 7.32 3 8 C1.68 8 0.36 8 -1 8 C-1.93065133 5.39417629 -2.14917407 4.35801776 -1.0625 1.75 C-0.711875 1.1725 -0.36125 0.595 0 0 Z " fill="#434343" transform="translate(486,164)"/>
<path d="M0 0 C0 0.99 0 1.98 0 3 C-0.66 3 -1.32 3 -2 3 C-2 3.99 -2 4.98 -2 6 C-4.97 5.505 -4.97 5.505 -8 5 C-8 3.35 -8 1.7 -8 0 C-4.71023192 -1.09658936 -3.28696233 -0.79953138 0 0 Z " fill="#090909" transform="translate(244,164)"/>
<path d="M0 0 C1.62463842 -0.05395478 3.24978541 -0.09277195 4.875 -0.125 C5.77992188 -0.14820313 6.68484375 -0.17140625 7.6171875 -0.1953125 C10 0 10 0 12 2 C10.02 2.99 10.02 2.99 8 4 C8 4.99 8 5.98 8 7 C5.36 7.33 2.72 7.66 0 8 C0 7.34 0 6.68 0 6 C1.62626404 4.61767557 3.2925002 3.28062485 5 2 C3.35 1.67 1.7 1.34 0 1 C0 0.67 0 0.34 0 0 Z " fill="#494949" transform="translate(291,160)"/>
<path d="M0 0 C0.99 0 1.98 0 3 0 C3 1.32 3 2.64 3 4 C4.32 3.67 5.64 3.34 7 3 C7.33 4.32 7.66 5.64 8 7 C5.36 7 2.72 7 0 7 C0 4.69 0 2.38 0 0 Z " fill="#090909" transform="translate(483,213)"/>
<path d="M0 0 C0.33 1.65 0.66 3.3 1 5 C-2.81756824 6.37432457 -6.07255329 5.67975039 -10 5 C-6.75728676 1.53365137 -4.90610505 0 0 0 Z " fill="#0F0F0F" transform="translate(521,194)"/>
<path d="M0 0 C1.98 0 3.96 0 6 0 C6.33 0.66 6.66 1.32 7 2 C6.38125 2.28875 5.7625 2.5775 5.125 2.875 C2.86674235 3.93720042 2.86674235 3.93720042 1 6 C-1.72869407 5.96712417 -4.2966618 5.43602229 -7 5 C-3.25 3 -3.25 3 -1 3 C-0.67 2.01 -0.34 1.02 0 0 Z " fill="#272727" transform="translate(234,161)"/>
<path d="M0 0 C0.928125 0.0825 1.85625 0.165 2.8125 0.25 C1.53187515 1.9574998 0.19482443 3.62373596 -1.1875 5.25 C-1.8475 5.25 -2.5075 5.25 -3.1875 5.25 C-3.5175 6.24 -3.8475 7.23 -4.1875 8.25 C-4.8475 6.93 -5.5075 5.61 -6.1875 4.25 C-4.36434338 1.00883268 -3.82500054 0.30000004 0 0 Z " fill="#030303" transform="translate(294.1875,160.75)"/>
<path d="M0 0 C3.96 0.33 7.92 0.66 12 1 C12 1.66 12 2.32 12 3 C8.37 3.33 4.74 3.66 1 4 C0.67 2.68 0.34 1.36 0 0 Z " fill="#050505" transform="translate(323,195)"/>
<path d="M0 0 C0.33 0 0.66 0 1 0 C1 1.65 1 3.3 1 5 C1.66 5 2.32 5 3 5 C3.33 3.35 3.66 1.7 4 0 C5.32 0 6.64 0 8 0 C7.67 1.32 7.34 2.64 7 4 C6.34 3.67 5.68 3.34 5 3 C5 3.99 5 4.98 5 6 C3.35 6 1.7 6 0 6 C0 4.02 0 2.04 0 0 Z " fill="#575757" transform="translate(388,205)"/>
<path d="M0 0 C3.3 0 6.6 0 10 0 C9.67 0.99 9.34 1.98 9 3 C6.03 3 3.06 3 0 3 C0 2.01 0 1.02 0 0 Z " fill="#030303" transform="translate(475,195)"/>
<path d="M0 0 C1.98 0 3.96 0 6 0 C5.67 1.32 5.34 2.64 5 4 C2.36 4 -0.28 4 -3 4 C-2.34 3.67 -1.68 3.34 -1 3 C-0.67 2.01 -0.34 1.02 0 0 Z " fill="#141414" transform="translate(413,216)"/>
<path d="M0 0 C1.98 0 3.96 0 6 0 C5.649375 0.763125 5.29875 1.52625 4.9375 2.3125 C3.67639116 5.04759379 3.67639116 5.04759379 5 8 C3.68 8 2.36 8 1 8 C1 7.01 1 6.02 1 5 C0.68911632 3.32900023 0.35919668 1.66128463 0 0 Z " fill="#232323" transform="translate(285,161)"/>
<path d="M0 0 C0.99 0 1.98 0 3 0 C2.67 2.31 2.34 4.62 2 7 C1.67 7 1.34 7 1 7 C0.67 8.65 0.34 10.3 0 12 C-0.33 12 -0.66 12 -1 12 C-1.02687279 10.18757948 -1.04633715 8.37504767 -1.0625 6.5625 C-1.07410156 5.55316406 -1.08570313 4.54382813 -1.09765625 3.50390625 C-1 1 -1 1 0 0 Z " fill="#373737" transform="translate(409,205)"/>
<path d="M0 0 C2.625 -0.1875 2.625 -0.1875 5 0 C5.33 1.32 5.66 2.64 6 4 C3.36 3.67 0.72 3.34 -2 3 C-1.34 2.01 -0.68 1.02 0 0 Z " fill="#1E1E1E" transform="translate(485,210)"/>
<path d="M0 0 C1.98 0 3.96 0 6 0 C5.67 1.32 5.34 2.64 5 4 C3.02 4 1.04 4 -1 4 C-0.67 2.68 -0.34 1.36 0 0 Z " fill="#121212" transform="translate(485,195)"/>
<path d="M0 0 C2.475 0.495 2.475 0.495 5 1 C5 4.63 5 8.26 5 12 C4.67 12 4.34 12 4 12 C3.896875 10.741875 3.79375 9.48375 3.6875 8.1875 C3.28960801 4.8431664 3.28960801 4.8431664 1.4375 2.0625 C0.963125 1.711875 0.48875 1.36125 0 1 C0 0.67 0 0.34 0 0 Z " fill="#5A5A5A" transform="translate(500,160)"/>
<path d="M0 0 C2.475 0.495 2.475 0.495 5 1 C5 1.99 5 2.98 5 4 C3.35 4.66 1.7 5.32 0 6 C0 4.02 0 2.04 0 0 Z " fill="#181818" transform="translate(222,194)"/>
<path d="M0 0 C0 3.25811062 -0.5522078 5.10441559 -2 8 C-2.99 8.33 -3.98 8.66 -5 9 C-5.3125 6.75 -5.3125 6.75 -5 4 C-2.5 1.6875 -2.5 1.6875 0 0 Z " fill="#4B4B4B" transform="translate(451,163)"/>
<path d="M0 0 C3 1 3 1 5 2 C5 2.99 5 3.98 5 5 C3.02 5.99 3.02 5.99 1 7 C0.67 4.69 0.34 2.38 0 0 Z " fill="#0F0F0F" transform="translate(499,161)"/>
<path d="M0 0 C0.99 0.99 1.98 1.98 3 3 C2.67 3.99 2.34 4.98 2 6 C-0.475 5.01 -0.475 5.01 -3 4 C-2.01 3.67 -1.02 3.34 0 3 C0 2.01 0 1.02 0 0 Z " fill="#393939" transform="translate(303,216)"/>
<path d="" fill="#7F7F7F" transform="translate(0,0)"/>
<path d="" fill="#BFBFBF" transform="translate(0,0)"/>
<path d="" fill="#000000" transform="translate(0,0)"/>
<path d="" fill="#000000" transform="translate(0,0)"/>
<path d="" fill="#FFFFFF" transform="translate(0,0)"/>
</svg>
